<?xml version="1.0" encoding="utf-8"?>
<!-- Generator: Adobe Illustrator 23.0.1, SVG Export Plug-In . SVG Version: 6.00 Build 0)  -->
<svg version="1.1" id="Layer_1" xmlns="http://www.w3.org/2000/svg" xmlns:xlink="http://www.w3.org/1999/xlink" x="0px" y="0px"
	 viewBox="0 0 300 300" style="enable-background:new 0 0 300 300;" xml:space="preserve">
<style type="text/css">
	.st0{fill:none;}
</style>
<rect id="XMLID_75_" class="st0" width="300" height="300"/>
<g id="XMLID_1_">
	<g id="XMLID_63_">
		<path id="XMLID_74_" d="M73.7,202.7c-8.1,0-23.1-4.6-23.1-51.8s15-51,23.1-51c3.8,0,6.2,0.9,6.2,0.9v5.8c-1-0.4-2.5-0.8-3.9-0.8
			c-7.1,0-17.1,6.2-17.1,45.1c0,39.7,10.4,45.8,17.5,45.8c1.3,0,2.4-0.1,3.5-0.4v5.5C79.8,201.9,77.5,202.7,73.7,202.7"/>
		<path id="XMLID_71_" d="M113.1,163.3c3.2,3.8,6.6,8.9,9.2,15.2c3.4,8.3,4.9,16.7,4.9,23.5h-7.6c0-6.6-1.3-14.4-3.7-20.4
			c-2.6-6.4-6-12.1-8.8-15.5V202H99V100.7h6.2c10.6,0,23.3,5.3,23.3,29.7C128.3,150.1,117.9,159.9,113.1,163.3 M107,106.6v53.3
			c2.6-0.9,13-8.5,13-29.6C120,109.9,112.7,106.6,107,106.6"/>
		<polygon id="XMLID_70_" points="148.9,202.1 148.9,166.6 145.6,166.6 145.6,160.7 148.9,160.7 148.9,100.7 174.5,100.7 
			174.5,106.6 157.1,106.6 157.1,160.7 170.5,160.7 170.5,166.6 157.1,166.6 157.1,196.2 174.5,196.2 174.5,202.1 		"/>
		<polygon id="XMLID_69_" points="231.8,202.1 227.6,202.1 217.6,136.4 207.5,202.1 203.3,202.1 187.7,100.7 195.7,100.7 205.9,170 
			216.2,100.7 220,100.7 230.2,170 240.5,100.7 247.4,100.7 		"/>
		<path id="XMLID_64_" d="M248.6,197.9c0.6,0.6,0.9,1.4,0.9,2.3c0,0.9-0.3,1.7-0.9,2.3c-0.6,0.6-1.5,1-2.3,1c-0.9,0-1.7-0.3-2.3-1
			c-0.6-0.6-1-1.4-1-2.3c0-0.9,0.3-1.7,1-2.3c0.6-0.6,1.4-0.9,2.3-0.9C247.1,196.9,247.9,197.2,248.6,197.9 M248.3,198.1
			c-0.6-0.6-1.3-0.8-2.1-0.8s-1.5,0.3-2,0.8c-0.6,0.6-0.9,1.3-0.9,2.1s0.3,1.5,0.8,2c0.5,0.6,1.3,0.8,2,0.8c0.8,0,1.5-0.3,2.1-0.8
			c0.5-0.5,0.8-1.2,0.8-2C249.1,199.4,248.8,198.7,248.3,198.1 M247.9,199.3c0,0.5-0.3,0.9-0.9,1l0.8,1.7h-0.7l-0.8-1.6h-0.8v1.6
			h-0.6v-3.7h1.4C247.4,198.2,247.9,198.6,247.9,199.3 M245.6,198.7v1.3h0.7c0.7,0,1-0.2,1-0.6c0-0.5-0.3-0.7-1-0.7H245.6z"/>
	</g>
	<g id="XMLID_22_">
		<path id="XMLID_60_" d="M56.8,241.9c-1.7,0-3.2,0.5-4.3,1.5c-1.3,1.2-2,2.9-2,5c0,1.9,0.6,3.6,1.7,4.7c1.1,1.2,2.7,1.8,4.5,1.8
			c3.8,0,6.3-2.6,6.3-6.7c0-1.9-0.6-3.6-1.8-4.7C60.1,242.5,58.5,241.9,56.8,241.9z M56.8,243.3c2.7,0,4.4,1.9,4.4,5
			c0,1-0.2,2.9-1.4,4.1c-0.7,0.8-1.7,1.1-3,1.1c-3.3,0-4.4-2.8-4.4-5.2C52.4,245.2,54,243.3,56.8,243.3z"/>
		<path id="XMLID_59_" d="M69.3,242.4c-0.2,0-0.5-0.1-0.8-0.1c-2.1,0-2.2,1.7-2.2,2.4v1.6h-1.4v1.2h1.4v7.1h1.4v-7.1h1.6v-1.2h-1.6
			v-1.4c0-0.6,0-1.4,1-1.4c0.2,0,0.6,0,0.8,0.1l0,0v-1.2l0,0C69.4,242.4,69.3,242.4,69.3,242.4z"/>
		<path id="XMLID_58_" d="M75,242.4c-0.2,0-0.5-0.1-0.8-0.1c-2.1,0-2.2,1.7-2.2,2.4v1.6h-1.4v1.2H72v7.1h1.4v-7.1H75v-1.2h-1.6v-1.4
			c0-0.6,0-1.4,1-1.4c0.2,0,0.6,0,0.8,0.1l0,0v-1.2l0,0C75.1,242.4,75.1,242.4,75,242.4z"/>
		<rect id="XMLID_57_" x="77" y="242.2" width="1.4" height="1.7"/>
		<rect id="XMLID_56_" x="77" y="246.3" width="1.4" height="8.3"/>
		<path id="XMLID_55_" d="M87.1,251.5c-0.1,0.6-0.3,2.3-2.3,2.3c-0.9,0-1.6-0.4-2-1.1c-0.4-0.5-0.5-1.3-0.5-2.2c0-1,0.2-3.3,2.5-3.3
			c1.7,0,2.1,1.3,2.2,1.9l0,0l1.6-0.1l0,0l0,0c-0.6-2.4-2.7-2.8-3.9-2.8c-3,0-4,2.4-4,4.5c0,1.1,0.3,2.2,0.9,2.9
			c0.7,0.9,1.8,1.4,3.2,1.4c1.6,0,2.8-0.6,3.4-1.8c0.4-0.7,0.4-1.1,0.5-1.4l0,0L87.1,251.5L87.1,251.5z"/>
		<rect id="XMLID_54_" x="90.8" y="242.2" width="1.4" height="1.7"/>
		<rect id="XMLID_53_" x="90.8" y="246.3" width="1.4" height="8.3"/>
		<path id="XMLID_50_" d="M101.9,253.4c-0.5,0-0.5-0.3-0.6-1.1v-2.7c0-1.1,0-2.1-0.9-2.8c-0.7-0.5-1.7-0.7-2.4-0.7
			c-1.3,0-2.4,0.5-2.9,1.5c-0.2,0.5-0.3,0.9-0.3,1.2v0.1l1.5,0.1l0,0l0,0c0-0.4,0-1.7,1.7-1.7c1.8,0,1.8,1.4,1.8,2.3v0.2l-1.3,0.1
			c-2.7,0.2-3.4,0.9-3.8,1.5c-0.2,0.4-0.4,0.8-0.4,1.3c0,1.4,1.2,2.4,2.8,2.4c1.5,0,2.4-0.9,2.8-1.3c0.1,0.8,0.6,1.2,1.5,1.2
			c0.3,0,0.6-0.1,0.8-0.1h0.1l0,0v-1.3h-0.1C102.3,253.4,102.1,253.4,101.9,253.4z M97.5,253.6c-0.9,0-1.5-0.5-1.5-1.2
			c0-0.5,0.2-1.1,1.8-1.5c0.8-0.2,1.4-0.3,1.9-0.3c0.1,0,0.2,0,0.2,0c0,1.2,0,1.4-0.2,1.8C99.3,253.2,98.6,253.6,97.5,253.6z"/>
		<rect id="XMLID_49_" x="104.4" y="242.2" width="1.4" height="12.5"/>
		<path id="XMLID_48_" d="M123.3,247.9c-0.4-0.2-0.9-0.3-1.6-0.5c-0.1,0-0.3-0.1-0.4-0.1L120,247c-1.1-0.2-2.4-0.6-2.4-1.9
			c0-1.4,1.5-1.9,2.8-1.9c0.9,0,1.6,0.2,2.2,0.6c0.9,0.7,1,1.7,1,2l0,0l1.7-0.1l0,0c-0.1-0.6-0.3-2-1.6-2.9
			c-1.1-0.8-2.5-0.9-3.4-0.9c-0.5,0-2.1,0-3.3,1.1c-0.5,0.5-1.2,1.2-1.2,2.4c0,2.6,2.8,3.2,4.4,3.6l1,0.2c1.1,0.2,2.3,0.6,2.3,2
			c0,1.5-1.2,2.4-3.1,2.4c-1.1,0-1.9-0.3-2.5-0.8c-0.9-0.8-1-1.9-1-2.4l0,0l-1.8,0.2l0,0l0,0c0.1,1.8,0.9,3,2.3,3.7
			c0.8,0.4,1.8,0.6,3,0.6c1.4,0,2.5-0.3,3.4-0.9c1-0.7,1.6-1.8,1.6-3C125.5,250.2,125.2,248.7,123.3,247.9z"/>
		<path id="XMLID_47_" d="M133.4,250.5c0,1,0,1.6-0.5,2.2c-0.4,0.5-1.1,0.8-1.8,0.8c-0.5,0-1.5-0.2-1.6-1.3c0-0.2,0-0.3,0-1.1v-4.8
			H128v4.9c0,1.4,0,2.1,0.6,2.8c0.3,0.4,0.9,0.9,2,0.9c1.6,0,2.5-1,2.8-1.4v1.2h1.5v-8.3h-1.5L133.4,250.5L133.4,250.5z"/>
		<path id="XMLID_44_" d="M142,246.1c-0.9,0-1.7,0.4-2.2,0.7c-0.3,0.2-0.4,0.4-0.6,0.6c0,0,0,0.1-0.1,0.1v-1.1h-1.5v12.2h1.5v-4.8
			c0.7,0.8,1.6,1.2,2.8,1.2c2.4,0,3.9-1.7,3.9-4.4C145.7,247.6,143.8,246.1,142,246.1z M144.2,250.5c0,1.8-0.9,2.6-1.2,2.8
			c-0.4,0.2-0.9,0.4-1.4,0.4c-1.6,0-2.5-1.1-2.5-3s1-3.1,2.5-3.2h0.1C143.2,247.4,144.2,248.6,144.2,250.5z"/>
		<path id="XMLID_41_" d="M152.4,246.1c-0.9,0-1.7,0.4-2.2,0.7c-0.3,0.2-0.4,0.4-0.7,0.6c0,0,0,0-0.1,0.1v-1.1H148v12.2h1.5v-4.8
			c0.7,0.8,1.6,1.2,2.8,1.2c2.4,0,3.9-1.7,3.9-4.4C156.1,247.6,154.2,246.1,152.4,246.1z M154.6,250.5c0,1.8-0.9,2.6-1.2,2.8
			c-0.4,0.2-0.9,0.4-1.4,0.4c-1.6,0-2.5-1.1-2.5-3s1-3.1,2.5-3.2h0.1C153.6,247.4,154.6,248.6,154.6,250.5z"/>
		<rect id="XMLID_40_" x="158.5" y="242.2" width="1.4" height="12.5"/>
		<rect id="XMLID_39_" x="162.6" y="242.2" width="1.4" height="1.7"/>
		<rect id="XMLID_38_" x="162.6" y="246.3" width="1.4" height="8.3"/>
		<path id="XMLID_35_" d="M172.7,251.9c-0.2,0.7-0.6,1.9-2.2,1.9c-0.7,0-1.3-0.2-1.8-0.7s-0.8-1.4-0.8-2.3h6.3l0,0
			c0-0.3,0-1-0.2-1.7c-0.5-2.2-2.2-3-3.7-3c-1.9,0-4,1.4-4,4.3c0,2.8,1.6,4.5,4.1,4.5c1.9,0,3.1-0.9,3.8-2.8V252L172.7,251.9
			L172.7,251.9z M167.9,249.7c0.2-1.5,1.1-2.5,2.3-2.5c0.2,0,2.2,0.1,2.3,2.5H167.9z"/>
		<path id="XMLID_34_" d="M177.9,247.7v-1.4h-1.5v8.3h1.5v-4c0-0.7,0-1.4,0.3-2c0.4-0.6,1-1,1.9-1c0.2,0,0.4,0,0.6,0h0.1V246l0,0
			C180.2,246.2,178.7,246.3,177.9,247.7z"/>
		<path id="XMLID_33_" d="M191.6,243.7h-1.5v2.6h-1.3v1.2h1.3v5.3c0,0.6,0,1.2,0.3,1.5s0.7,0.4,1.3,0.4c0.4,0,0.9-0.1,1.2-0.1
			c0.1,0,0.1,0,0.1,0l0,0v-1.2l0,0c-0.3,0.1-0.6,0.2-0.9,0.2c-0.6,0-0.6-0.4-0.6-1.4v-4.7h1.5v-1.2h-1.5L191.6,243.7L191.6,243.7z"
			/>
		<path id="XMLID_30_" d="M198.7,246.1c-3.1,0-4.2,2.4-4.2,4.5c0,2,1.1,4.3,4.1,4.3c2.4,0,4-1.8,4.1-4.4c0-1.4-0.4-2.5-1.2-3.3
			C200.8,246.4,199.8,246.1,198.7,246.1z M201.1,250.5c0,1.2-0.4,3.2-2.5,3.2c-1.6,0-2.5-1.1-2.5-3.1c0-1.2,0.3-3.3,2.6-3.3
			c0.7,0,1.9,0.3,2.3,2.1C201.1,249.6,201.1,249.9,201.1,250.5z"/>
		<polygon id="XMLID_29_" points="218.2,252.3 214.5,242.2 214.5,242.2 212.3,242.2 212.3,254.7 214,254.7 213.8,244.6 217.6,254.6 
			217.6,254.7 218.9,254.7 222.7,244.4 222.5,254.6 222.5,254.7 224.2,254.7 224.2,242.2 222,242.2 		"/>
		<path id="XMLID_26_" d="M233.1,251.9c-0.2,0.7-0.6,1.9-2.2,1.9c-0.7,0-1.3-0.2-1.8-0.7s-0.8-1.4-0.8-2.3h6.3l0,0
			c0-0.3,0-1-0.2-1.7c-0.5-2.2-2.2-3-3.7-3c-1.9,0-4,1.4-4,4.3c0,2.8,1.6,4.5,4.1,4.5c1.9,0,3.1-0.9,3.8-2.8V252L233.1,251.9
			L233.1,251.9z M228.4,249.7c0.2-1.5,1.1-2.5,2.3-2.5c0.2,0,2.2,0.1,2.3,2.5H228.4z"/>
		<path id="XMLID_25_" d="M240.9,246.1c-0.5,0-1.8,0.1-2.5,1.4v-1.1h-1.5v8.3h1.5v-4.8c0-0.6,0-1.2,0.6-1.8c0.4-0.4,0.9-0.6,1.6-0.6
			c0.7,0,1.5,0.3,1.7,1.1c0.1,0.3,0.1,0.5,0.1,1.4v4.7h1.5v-5c0-0.7,0-1.2-0.1-1.7C243.2,246.6,241.9,246.1,240.9,246.1z"/>
		<polygon id="XMLID_24_" points="246.9,242.1 246.3,243.9 245.8,242.1 245.7,242.1 245.1,242.1 245.1,244.5 245.6,244.5 245.6,243 
			245.6,242.8 246.1,244.5 246.1,244.5 246.5,244.5 247,243 247,242.8 247,243 247,244.5 247,244.5 247.5,244.5 247.5,242.1 		"/>
		<polygon id="XMLID_23_" points="243,242.5 243.7,242.5 243.7,244.5 244.2,244.5 244.2,242.5 245,242.5 245,242.1 243,242.1 		"/>
	</g>
	<g id="XMLID_20_">
		<rect id="XMLID_21_" x="50.5" y="80.4" width="197" height="0.4"/>
	</g>
	<g id="XMLID_18_">
		<rect id="XMLID_19_" x="50.5" y="222" width="197" height="0.4"/>
	</g>
	<path id="XMLID_15_" d="M54.6,47.1l-1,7.9h2.1L54.6,47.1z M56.4,60.5l-0.5-3.4h-2.6l-0.4,3.4h-2.3l2.9-18.9H56l2.9,18.9H56.4z"/>
	<polygon id="XMLID_14_" points="85.5,60.5 85.5,50.4 83.8,55.3 82.7,55.3 81,50.4 81,60.5 78.5,60.5 78.5,41.6 79.8,41.6 
		83.3,51.4 86.8,41.6 88,41.6 88,60.5 	"/>
	<polygon id="XMLID_13_" points="108.8,60.5 108.8,54.2 108,54.2 108,52.2 108.8,52.2 108.8,41.6 115,41.6 115,43.6 111.4,43.6 
		111.4,52.2 114.3,52.2 114.3,54.2 111.4,54.2 111.4,58.4 115,58.4 115,60.5 	"/>
	<g id="XMLID_9_">
		<path id="XMLID_10_" d="M137.5,43.7V52c0.5-0.1,2.2-1.5,2.2-4.7C139.8,44.5,138.7,43.7,137.5,43.7 M139.7,53.3
			c0.6,0.7,1.3,1.7,1.8,2.9c0.6,1.5,0.8,2.9,0.8,4.2h-2.5c0-1.1-0.2-2.3-0.6-3.3c-0.4-1.1-1.1-2-1.5-2.5v5.9H135V41.6h2
			c2.7,0,5.4,1.4,5.4,5.7C142.4,50.9,140.5,52.7,139.7,53.3"/>
	</g>
	<rect id="XMLID_8_" x="162.5" y="41.6" width="2.6" height="18.9"/>
	<g id="XMLID_6_">
		<path id="XMLID_7_" d="M190.6,60.6c-2,0-5.2-0.8-5.2-9.6s3.2-9.6,5.2-9.6c0.7,0,1.3,0.2,1.3,0.2v2c-0.3,0-0.5-0.1-0.9-0.1
			c-1.1,0-3,0.8-3,7.5s1.9,7.5,3,7.5c0.3,0,0.6-0.1,0.8-0.1v2C191.9,60.4,191.3,60.6,190.6,60.6"/>
	</g>
	<path id="XMLID_3_" d="M215.5,47.1l-1,7.9h2.1L215.5,47.1z M217.3,60.5l-0.5-3.4h-2.6l-0.4,3.4h-2.3l2.9-18.9h2.5l2.9,18.9H217.3z"
		/>
	<polygon id="XMLID_2_" points="246.1,60.5 241.9,49.7 241.9,60.5 239.4,60.5 239.4,41.6 240.7,41.6 244.9,52.4 244.9,41.6 
		247.4,41.6 247.4,60.5 	"/>
</g>
</svg>
