<?xml version="1.0" encoding="utf-8"?>
<!-- Generator: Adobe Illustrator 22.1.0, SVG Export Plug-In . SVG Version: 6.00 Build 0)  -->
<svg version="1.1" id="Layer_1" xmlns="http://www.w3.org/2000/svg" xmlns:xlink="http://www.w3.org/1999/xlink" x="0px" y="0px"
	 viewBox="0 0 792 792" style="enable-background:new 0 0 792 792;" xml:space="preserve">
<style type="text/css">
	.st0{fill:#2D2A26;}
	.st1{fill:#FFFFFF;}
</style>
<g>
	<g>
		<g>
			<rect id="SVGID_1_" class="st0" width="792" height="792"/>
		</g>
	</g>
	<g>
		<path class="st1" d="M562.8,393.8c1.3,1.3,2,3.1,2,4.9c0,1.9-0.7,3.6-2,4.9c-1.4,1.3-3.1,2.1-5,2.1s-3.6-0.7-4.9-2.1
			c-1.3-1.3-2-3.1-2-4.9s0.7-3.6,2.1-5c1.3-1.3,3-2,4.9-2C559.7,391.8,561.4,392.5,562.8,393.8z M562.2,394.4
			c-1.2-1.2-2.7-1.8-4.4-1.8s-3.2,0.6-4.3,1.8c-1.2,1.2-1.8,2.8-1.8,4.4s0.6,3.1,1.8,4.3c1.2,1.2,2.7,1.8,4.3,1.8
			c1.7,0,3.2-0.6,4.4-1.8c1.1-1.1,1.8-2.6,1.8-4.3C563.9,397.1,563.3,395.6,562.2,394.4z M561.3,396.9c0,1.1-0.7,1.9-1.9,2.1
			l1.8,3.7h-1.5l-1.7-3.5h-1.7v3.5H555v-8h3C560.2,394.7,561.3,395.4,561.3,396.9z M556.3,395.5v2.8h1.4c1.5,0,2.2-0.3,2.2-1.3
			s-0.7-1.4-2.2-1.4h-1.4V395.5z"/>
	</g>
	<g>
		<path class="st1" d="M270.6,406.3c-13.6,0-38.6-7.7-38.6-86.4s25-85,38.6-85c6.4,0,10.3,1.5,10.3,1.5v9.6
			c-1.8-0.7-4.2-1.3-6.6-1.3c-11.8,0-28.5,10.3-28.5,75.2c0,66.2,17.3,76.5,29.2,76.5c2.2,0,3.9-0.2,5.9-0.7v9.2
			C280.9,405,277,406.3,270.6,406.3z"/>
		<path class="st1" d="M336.4,340.5c5.3,6.3,11,14.9,15.3,25.4c5.7,13.8,8.1,27.8,8.1,39.2h-12.7c0-11-2.2-24.1-6.1-34
			c-4.4-10.7-10.1-20.2-14.7-25.9V405h-13.6V236H323c17.8,0,38.8,8.8,38.8,49.5C361.8,318.4,344.5,334.8,336.4,340.5z M326.3,245.8
			v89c4.4-1.5,21.7-14.2,21.7-49.3C348,251.3,335.7,245.8,326.3,245.8z"/>
		<path class="st1" d="M396.2,405.2V346h-5.5v-9.9h5.5V236h42.7v9.9h-29.2v90.3h22.4v9.9h-22.4v49.3h29.2v9.9L396.2,405.2
			L396.2,405.2z"/>
		<path class="st1" d="M534.5,405.2h-7l-16.7-109.6L494,405.2h-7L460.9,236h13.4l17.1,115.7l17-115.7h6.4l17.1,115.7L549,236h11.6
			L534.5,405.2z"/>
	</g>
	<g>
		<path class="st1" d="M241.7,168.9l-0.8-5.6h-4.4l-0.7,5.6H232l4.8-31.7h4.2l4.8,31.7H241.7z M238.8,146.5l-1.7,13.3h3.5
			L238.8,146.5z"/>
		<path class="st1" d="M290.4,168.9V152l-2.8,8.3h-1.9l-2.8-8.3v16.9h-4.2v-31.7h2.1l5.8,16.5l5.9-16.5h2.1v31.7H290.4z"/>
		<path class="st1" d="M329.2,168.9v-10.4h-1.4V155h1.4v-17.8h10.4v3.5h-6.1V155h4.8v3.5h-4.8v7h6.1v3.5h-10.4V168.9z"/>
		<path class="st1" d="M380.6,156.9c0.9,1.2,2.1,2.9,3,4.9c1,2.5,1.3,4.9,1.3,7.1h-4.3c0-1.8-0.3-3.8-1-5.6s-1.8-3.4-2.5-4.3v9.9
			h-4.4v-31.7h3.4c4.6,0,9,2.4,9,9.6C385.2,153,382.1,155.9,380.6,156.9z M377.1,140.7v14c0.9-0.1,3.7-2.5,3.7-7.9
			C380.8,142.1,379,140.7,377.1,140.7z"/>
		<path class="st1" d="M418.8,168.9v-31.7h4.4v31.7H418.8z"/>
		<path class="st1" d="M465.9,169.2c-3.3,0-8.7-1.4-8.7-16.1c0-14.8,5.4-16,8.7-16c1.2,0,2.1,0.3,2.1,0.3v3.4
			c-0.5-0.1-0.9-0.2-1.5-0.2c-1.9,0-5,1.4-5,12.5c0,11.3,3.1,12.6,5.1,12.6c0.5,0,1-0.1,1.4-0.2v3.4
			C468,168.9,467.1,169.2,465.9,169.2z"/>
		<path class="st1" d="M510.3,168.9l-0.8-5.6h-4.4l-0.7,5.6h-3.9l4.8-31.7h4.2l4.8,31.7H510.3z M507.3,146.5l-1.7,13.3h3.5
			L507.3,146.5z"/>
		<path class="st1" d="M558.5,168.9l-7.1-18.1v18.1h-4.2v-31.7h2.1l7.1,18.2v-18.2h4.2v31.7H558.5z"/>
	</g>
	<rect x="232" y="201.1" class="st1" width="328.7" height="2.7"/>
	<rect x="232" y="437.4" class="st1" width="328.7" height="2.7"/>
	<g>
		<path class="st1" d="M250.1,473.1c-2-1.9-4.7-3-7.8-3c-2.9,0-5.6,1-7.6,2.7c-2.3,2-3.5,5.1-3.5,8.8c0,3.4,1,6.2,3,8.3
			c2,2.1,4.7,3.2,8,3.2c6.7,0,11.1-4.6,11.1-11.7C253.3,478,252.2,475.2,250.1,473.1z M242.3,472.6c2.4,0,4.4,0.8,5.7,2.5
			c1.3,1.5,2,3.8,2,6.4c0,1.8-0.3,5.1-2.5,7.3c-1.3,1.3-3.1,2-5.2,2c-2.5,0-4.6-1-6-2.8c-1.2-1.6-1.8-3.8-1.8-6.2
			c0-2.6,0.6-4.8,1.8-6.4C237.8,473.5,239.8,472.6,242.3,472.6z"/>
		<path class="st1" d="M264.6,471c-0.1,0-0.2,0-0.3,0c-0.4-0.1-0.9-0.1-1.5-0.1c-3.7,0-3.8,2.9-3.8,4.2v2.9h-2.4v2.2h2.4v12.5h2.5
			v-12.5h2.7V478h-2.7v-2.5c0-1.1,0-2.5,1.8-2.5c0.3,0,0.7,0,1.3,0.1h0.1L264.6,471L264.6,471z"/>
		<path class="st1" d="M274.7,471c-0.1,0-0.2,0-0.3,0c-0.4-0.1-0.9-0.1-1.5-0.1c-3.7,0-3.8,2.9-3.8,4.2v2.9h-2.4v2.2h2.4v12.5h2.5
			v-12.5h2.7V478h-2.7v-2.5c0-1.1,0-2.5,1.8-2.5c0.3,0,0.7,0,1.3,0.1h0.1L274.7,471L274.7,471z"/>
		<g>
			<rect x="277.8" y="478" class="st1" width="2.5" height="14.6"/>
			<rect x="277.8" y="470.7" class="st1" width="2.5" height="3"/>
		</g>
		<path class="st1" d="M295.6,487L295.6,487c-0.2,1.1-0.5,4-4,4c-1.5,0-2.8-0.7-3.6-1.9c-0.6-0.9-0.9-2.3-0.9-3.9
			c0-1.8,0.4-5.8,4.3-5.8c3,0,3.7,2.3,3.9,3.3v0.1l2.8-0.2h0.1v-0.1c-1-4.4-5.1-4.9-6.8-4.9c-2.3,0-4.1,0.8-5.4,2.4
			c-1.1,1.4-1.7,3.4-1.7,5.5c0,2,0.6,3.8,1.6,5.2c1.3,1.6,3.2,2.5,5.7,2.5c2.8,0,4.8-1.1,6-3.2c0.6-1,0.7-1.8,0.8-2.5v-0.1
			L295.6,487z"/>
		<g>
			<rect x="302.1" y="478" class="st1" width="2.5" height="14.6"/>
			<rect x="302.1" y="470.7" class="st1" width="2.5" height="3"/>
		</g>
		<path class="st1" d="M322.4,490.3c-0.2,0.1-0.5,0.1-0.8,0.1c-0.9,0-1-0.6-1-2v-4.8c0-1.9,0.1-3.6-1.6-5c-1.2-0.9-3-1.2-4.3-1.2
			c-2.4,0-4.2,0.9-5.1,2.6c-0.4,0.8-0.5,1.5-0.6,2.1v0.2l2.7,0.2h0.1v-0.1c0-0.7,0-3,3-3c3.2,0,3.2,2.5,3.2,4v0.3l-2.3,0.2
			c-4.7,0.4-6,1.5-6.8,2.6c-0.4,0.6-0.7,1.4-0.7,2.2c0,2.4,2.1,4.2,5,4.2c2.7,0,4.2-1.5,4.9-2.3c0.2,1.4,1.1,2.1,2.6,2.1
			c0.6,0,1-0.1,1.3-0.2c0.1,0,0.2,0,0.2-0.1l0,0L322.4,490.3L322.4,490.3z M313.9,490.8c-2,0-2.7-1.1-2.7-2.1c0-0.9,0.4-2,3.1-2.6
			c1.3-0.3,2.4-0.5,3.3-0.6c0.2,0,0.3-0.1,0.4-0.1c0,2,0,2.4-0.4,3.2C317.1,490,315.7,490.8,313.9,490.8z"/>
		<rect x="325.9" y="470.7" class="st1" width="2.5" height="21.9"/>
		<path class="st1" d="M354.5,480.8c-0.7-0.3-1.5-0.5-2.8-0.8c-0.2,0-0.4-0.1-0.6-0.2l-2.4-0.6c-1.9-0.4-4.2-1-4.2-3.3
			c0-1.5,1.3-3.4,4.9-3.4c1.6,0,2.9,0.3,3.8,1c1.6,1.2,1.7,2.9,1.7,3.6v0.1l3.1-0.2v-0.1c-0.2-1.1-0.6-3.5-2.8-5.2
			c-2-1.4-4.3-1.6-5.9-1.6c-0.9,0-3.7,0-5.9,1.9c-0.9,0.8-2,2.2-2,4.3c0,4.6,4.9,5.7,7.8,6.3l1.8,0.4c2,0.4,4.1,1,4.1,3.6
			s-2.1,4.3-5.4,4.3c-1.9,0-3.3-0.5-4.4-1.4c-1.6-1.5-1.7-3.3-1.7-4.2v-0.1l-3.2,0.4h-0.1v0.1c0.2,3.1,1.6,5.3,4.1,6.5
			c1.4,0.7,3.2,1.1,5.2,1.1c2.5,0,4.4-0.5,6-1.6c1.8-1.3,2.8-3.1,2.8-5.3C358.3,484.8,357.8,482.2,354.5,480.8z"/>
		<path class="st1" d="M372.6,478c-0.2,0-0.4,0.2-0.4,0.4v7c0,1.7,0,2.8-0.9,3.9c-0.7,0.9-1.9,1.4-3.2,1.4c-1,0-2.6-0.3-2.8-2.2
			c-0.1-0.4-0.1-0.5-0.1-2v-8c0-0.2-0.2-0.4-0.4-0.4h-1.9c-0.2,0-0.4,0.2-0.4,0.4v8.2c0,2.5,0,3.7,1.1,4.9c0.6,0.7,1.7,1.5,3.6,1.5
			c2.8,0,4.3-1.7,4.9-2.5v2.1h2.2c0.2,0,0.4-0.2,0.4-0.4v-13.9c0-0.2-0.2-0.4-0.4-0.4H372.6z"/>
		<path class="st1" d="M391.8,479.4c-1.2-1.2-2.8-1.9-4.5-1.9c-1.3,0-2.8,0.5-3.9,1.2c-0.5,0.3-0.8,0.7-1.1,1.1l-0.1,0.1v-2H380
			c-0.2,0-0.4,0.2-0.4,0.4v20.8c0,0.2,0.2,0.4,0.4,0.4h1.8c0.2,0,0.4-0.2,0.4-0.4v-7.3c0-0.3,0.4-0.5,0.6-0.3c1.1,1,2.5,1.4,4.2,1.4
			c4.2,0,6.9-3,6.9-7.7C393.9,482.9,393.2,480.8,391.8,479.4z M391.2,485.3c0,3.2-1.6,4.5-2.1,4.8c-0.7,0.4-1.5,0.6-2.5,0.6
			c-2.8,0-4.5-2-4.5-5.2c0-3.3,1.7-5.5,4.4-5.6c0.1,0,0.2,0,0.2,0C389.5,479.9,391.2,482,391.2,485.3z"/>
		<path class="st1" d="M410.1,479.4c-1.2-1.2-2.8-1.9-4.5-1.9c-1.3,0-2.8,0.5-3.9,1.2c-0.5,0.3-0.8,0.7-1.1,1.1l-0.1,0.1v-2h-2.2
			c-0.2,0-0.4,0.2-0.4,0.4v20.8c0,0.2,0.2,0.4,0.4,0.4h1.8c0.2,0,0.4-0.2,0.4-0.4v-7.3c0-0.3,0.4-0.5,0.6-0.3c1.1,1,2.5,1.4,4.2,1.4
			c4.2,0,6.9-3,6.9-7.7C412.2,482.9,411.4,480.8,410.1,479.4z M409.5,485.3c0,3.2-1.6,4.5-2.1,4.8c-0.7,0.4-1.5,0.6-2.5,0.6
			c-2.8,0-4.5-2-4.5-5.2c0-3.3,1.7-5.5,4.4-5.6c0.1,0,0.2,0,0.2,0C407.8,479.9,409.5,482,409.5,485.3z"/>
		<path class="st1" d="M416.2,471.1v21.2c0,0.2,0.2,0.4,0.4,0.4h1.8c0.2,0,0.4-0.2,0.4-0.4v-21.2c0-0.2-0.2-0.4-0.4-0.4h-1.8
			C416.4,470.7,416.2,470.9,416.2,471.1z"/>
		<g>
			<path class="st1" d="M423.9,492.6h1.8c0.2,0,0.4-0.2,0.4-0.4v-13.9c0-0.2-0.2-0.4-0.4-0.4h-1.8c-0.2,0-0.4,0.2-0.4,0.4v13.9
				C423.5,492.4,423.7,492.6,423.9,492.6z"/>
			<path class="st1" d="M423.5,471.1v2.3c0,0.2,0.2,0.4,0.4,0.4h1.8c0.2,0,0.4-0.2,0.4-0.4v-2.3c0-0.2-0.2-0.4-0.4-0.4h-1.8
				C423.7,470.7,423.5,470.9,423.5,471.1z"/>
		</g>
		<path class="st1" d="M441.3,487.7L441.3,487.7L441.3,487.7c-0.7,3-2.7,3.4-3.9,3.4c-1.3,0-2.4-0.4-3.2-1.2
			c-0.9-0.9-1.4-2.3-1.5-3.7c0-0.2,0.2-0.4,0.4-0.4h10.7v-0.1c0-0.6,0-1.7-0.3-3c-0.9-3.8-3.9-5.2-6.4-5.2c-1.7,0-3.5,0.6-4.7,1.8
			c-1.6,1.4-2.4,3.4-2.4,5.9c0,4.9,2.8,7.9,7.2,7.9c3.3,0,5.5-1.7,6.6-4.9v-0.1L441.3,487.7z M433.3,483.8c-0.2,0-0.4-0.2-0.4-0.4
			c0.4-2.4,1.9-3.9,4-3.9c3.1,0,3.9,2.8,4,3.9c0,0.2-0.1,0.4-0.4,0.4H433.3z"/>
		<path class="st1" d="M455.3,477.8c-1,0-3.5,0.1-4.9,2.7V478h-2.2c-0.2,0-0.4,0.2-0.4,0.4v13.9c0,0.2,0.2,0.4,0.4,0.4h1.9
			c0.2,0,0.4-0.2,0.4-0.4v-6.6c0-1.3,0-2.4,0.6-3.5c0.7-1.1,1.8-1.7,3.3-1.7c0.4,0,0.7,0,1,0.1h0.1L455.3,477.8L455.3,477.8z"/>
		<path class="st1" d="M473.4,480.1V478h-2.3c-0.2,0-0.4-0.2-0.4-0.4v-3.9c0-0.2-0.2-0.4-0.4-0.4h-1.9c-0.2,0-0.4,0.2-0.4,0.4v4.2
			h-2.3v2.2h2.3v9.4c0,1.1,0,2.1,0.6,2.7c0.4,0.5,1.2,0.7,2.3,0.7c0.8,0,1.6-0.1,2.1-0.2c0.1,0,0.2,0,0.3,0h0.1v-2.2h-0.1
			c-0.5,0.1-1.1,0.3-1.6,0.3c-1,0-1-0.7-1-2.4v-7.9c0-0.2,0.2-0.4,0.4-0.4L473.4,480.1L473.4,480.1z"/>
		<path class="st1" d="M488.1,479.4c-1.2-1.2-2.9-1.9-4.9-1.9c-2.5,0-4.5,0.9-5.8,2.7c-1,1.4-1.5,3.2-1.5,5.2c0,3.5,1.9,7.6,7.2,7.6
			c4.2,0,7.1-3.1,7.2-7.8C490.3,482.9,489.5,480.8,488.1,479.4z M487.4,485.3c-0.1,4.9-2.8,5.7-4.4,5.7c-2.8,0-4.4-2-4.4-5.5
			c0-5.1,2.9-5.8,4.6-5.8c1.2,0,3.4,0.5,4,3.6C487.4,483.6,487.5,484.3,487.4,485.3z"/>
		<path class="st1" d="M517.9,470.9l-6.3,16.6c-0.1,0.3-0.5,0.3-0.7,0l-6.3-16.8l0,0h-3.5c-0.2,0-0.4,0.2-0.4,0.4v21.2
			c0,0.2,0.2,0.4,0.4,0.4h2.2c0.2,0,0.4-0.2,0.4-0.4l-0.3-15.3c0-0.4,0.5-0.5,0.7-0.1l5.9,15.7l0,0h2.1c0.1,0,0.3-0.1,0.3-0.2
			l5.9-15.8c0.1-0.4,0.7-0.3,0.7,0.1l-0.3,15.8v0.1h2.6c0.2,0,0.4-0.2,0.4-0.4V471c0-0.2-0.2-0.4-0.4-0.4h-3.2
			C518.1,470.7,517.9,470.8,517.9,470.9z"/>
		<path class="st1" d="M537.1,487.7L537.1,487.7L537.1,487.7c-0.7,3-2.7,3.4-3.9,3.4c-1.3,0-2.4-0.4-3.2-1.2
			c-0.9-0.9-1.4-2.3-1.5-3.7c0-0.2,0.2-0.4,0.4-0.4h10.7v-0.1c0-0.6,0-1.7-0.3-3c-0.9-3.8-3.9-5.2-6.4-5.2c-1.7,0-3.5,0.6-4.7,1.8
			c-1.6,1.4-2.4,3.4-2.4,5.9c0,4.9,2.8,7.9,7.2,7.9c3.3,0,5.5-1.7,6.6-4.9v-0.1L537.1,487.7z M529.1,483.8c-0.2,0-0.4-0.2-0.4-0.4
			c0.4-2.4,1.9-3.9,4-3.9c3.1,0,3.9,2.8,4,3.9c0,0.2-0.1,0.4-0.4,0.4H529.1z"/>
		<path class="st1" d="M555.6,480.9c-0.7-2.5-3.1-3.4-4.8-3.4c-0.9,0-3.1,0.2-4.5,2.4v-2H544c-0.2,0-0.4,0.2-0.4,0.4v13.9
			c0,0.2,0.2,0.4,0.4,0.4h1.9c0.2,0,0.4-0.2,0.4-0.4v-8c0-1.1,0-2.2,1.1-3.2c0.7-0.7,1.6-1.1,2.7-1.1c1.2,0,2.6,0.5,3.1,2
			c0.1,0.5,0.1,0.9,0.1,2.4v8c0,0.2,0.2,0.4,0.4,0.4h1.9c0.2,0,0.4-0.2,0.4-0.4v-8.4C555.8,482.6,555.8,481.7,555.6,480.9z"/>
	</g>
	<g>
		<path class="st1" d="M564.9,467.3h-2.7v7.2h-1.5v-7.2H558v-1h6.8v1H564.9z M571.3,472.6l2.3-6.3h2v8.3h-1.3v-7.1l-2.7,7.1h-0.8
			l-2.8-7.1v7.1h-1.3v-8.3h2L571.3,472.6z"/>
	</g>
	<g>
		<path class="st1" d="M440.5,655.4c-0.5,0.4-0.9,0.7-1.4,1.1c-0.2-0.1-0.3-0.3-0.5-0.5C439.1,655.7,439.5,655.2,440.5,655.4z"/>
		<g>
			<path class="st1" d="M615.5,610c-1.1,1.4-2.1,2.8-3.3,4.3c-0.3-0.5-0.6-0.9-0.8-1.3c-0.4-0.9-0.9-1.5-2.1-1.5
				c-0.1,0.2-0.3,0.5-0.4,0.8c-0.4,0.9-0.8,1.9-1.2,2.8c-0.2,0.4-0.4,0.9,0,1.3c0.1,0.1,0,0.2-0.1,0.3c-0.1,0.8-0.2,1.5-0.1,2.3
				c0,0.3,0.4,0.5,0.6,0.7c0.6,0.4,0.8,1,0.7,1.7v0.1c0,1.3,0.2,2.6-1.4,3.2c0.4,1.8,0.8,3.5,1.2,5.2c0.2,0.8,0.2,1.5,0,2.3
				c-0.2,0.5-0.3,1-0.4,1.6c-0.1,0.7-0.2,1.4,0.5,2c0.5,0.4,0.6,0.9,0.3,1.4c0.5,0.6,1.5,0.8,1.3,1.7c-0.1,0.7,0.4,1.5-0.8,1.9
				c1.3,0.8,0.8,1.9,0.8,2.9c0,0.3-0.4,0.6-0.6,0.8c-0.6,0.5-0.7,1-0.5,1.7c0.4,1.5,0.7,3,1.1,4.5c0.1,0.5,0.4,0.8,1,0.9
				c2.2,0.3,4.3,0.7,6.5,1c0.8,0.1,1.7,0,2.6,0.1c0.7,0,1.3,0.2,2,0.2c0.2,0,0.5,0,0.7-0.1c0.6-0.2,1.3-0.1,2.2,0
				c-0.4,0.2-0.5,0.3-0.7,0.4c-0.4,0.2-0.6,0.5-0.3,1c0.2,0.3,0.2,0.7,0.2,1c0,1.9,0,3.9,0,5.8c0,0.6-0.2,1-0.8,1.3
				s-1.1,0.6-1.6,0.9c-0.6,0.4-1.3,0.6-2.1,0.4c-2.3-0.6-4.7-0.8-7.1-0.7c-3,0.1-6,0-9,0c-0.5,0-1,0.1-1.4-0.3
				c-0.2-0.2-0.6-0.1-0.9-0.1c-2,0-4-0.1-6,0c-1.1,0.1-2.2,0.4-3.2,0.8c-1,0.4-1.9,0.4-2.7-0.2c-0.3-0.2-0.6-0.3-0.9-0.5
				c-1-0.6-2.1-1-3.3-0.4c-0.3,0.1-0.8,0.1-1.1,0c-0.8-0.2-1.5-0.6-2.3-0.9c-0.4-0.2-0.6-0.4-0.6-0.8v-0.1c-0.1-1.5-0.1-1.5,1.3-2.4
				c0.3-0.2,0.6-0.4,0.9-0.6c0-1,0-1.9,0-3c2.4-1,4.8-2,7.1-3c-0.1-0.3-0.2-0.5-0.3-0.8c0.2,0,0.3-0.1,0.5-0.1
				c0.8,0,1.6-0.1,2.3-0.6c0.3-0.3,0.5-0.6,0.5-1c0-0.8,0-1.6,0-2.4c0-1.2,0-2.4,0.4-3.6c0.2-0.9,0.2-1.8-0.3-2.7
				c-0.5-0.8-0.6-1.8-0.9-2.7c0-0.2,0.1-0.4,0.2-0.6c0.1-0.2,0.2-0.3,0.4-0.4c1.9-1.2,1.4-3.1,1.3-4.8c0-0.4-0.4-0.7-0.6-0.9
				c0-2,0-3.8,0-5.6c0.1-1.9-1-3.5-1.4-5.4c0.4-0.1,0.8-0.2,1.2-0.4c0.3-0.1,0.6-0.2,0.9-0.3c1.1-0.7,1.2-1,0.6-2.2
				c-0.4-0.9-0.9-1.8-1.3-2.7c-0.4-0.7-0.5-1.4-0.4-2.2c0.1-1.6,0.2-3.1,0.4-4.7c0-0.4,0.2-0.7,0.3-1.2c0.9,0.8,1.8,1,2.8,1.3
				c0.2,0.1,0.5,0,0.7-0.1c0.3-0.2,0.6-0.4,1-0.7c-0.6-1-1.2-1.9-1.8-2.9c-0.3,0-0.6,0.1-0.9,0.1c-0.1-0.1-0.1-0.2-0.2-0.3
				c-0.1-0.4-0.2-0.7-0.2-1.1c0-1-0.3-1.8-1.2-2.4c-0.4-0.3-0.4-0.7-0.5-1.2c-0.1-1.9-0.2-3.7-0.4-5.6c0-0.3-0.1-0.6-0.1-1
				c-1.3-0.3-2.5-0.5-3.8-0.8c-0.9-0.2-0.9-0.2-1.3-1.2c-1.4-0.1-2.9-0.3-4.2-0.4c-0.4-0.4-0.8-0.8-1.2-1.1
				c-0.6-0.4-1.2-0.7-1.8-0.9c-0.7-0.3-1.2-0.6-1.1-1.4c0-0.3-0.4-0.6-0.6-1c1.3-0.7,2.8-1.4,4.1-2.3c1.3-0.9,2.5-2,3.7-3
				c0.2,0.3,0.4,0.6,0.7,1c0.4-0.6,0.7-1.1,1-1.6s0.6-0.7,1.3-0.7s1.5-0.1,2.2-0.2c0.1,0,0.2,0,0.3,0.1c2.8,0.6,5.6,1.2,8.4,1.8
				c0.5,0.1,1.2,0,1.7-0.2c1.9-0.4,3.8-0.5,5.7-0.5c0.7,0,1.2,0.1,1.8,0.5c1.1,0.6,2.2,1.2,3.3,1.8c0.5,0.3,0.9,0.3,1.2-0.2
				c1.1,0.8,2.3,1.5,3.3,2.3c0.6,0.5,1.2,0.7,2,0.3c0.2-0.1,0.4-0.1,0.8-0.3c0,0.5,0,0.9,0,1.3c0,0.6-0.1,1.1,0.5,1.6
				c0.2,0.2,0.1,0.6,0.2,1c-1.1-0.4-1.4,0.5-2,0.7c-0.2-0.1-0.4-0.2-0.6-0.3c-0.1,0.1-0.2,0.1-0.3,0.2c-0.5,0.6-1,1.1-1.4,1.7
				c-0.2,0.2-0.3,0.6-0.2,0.9c0.2,0.8,0.6,1.6,0.9,2.5c0.3-0.1,0.6-0.2,0.8-0.3c0.1,0.1,0.1,0.2,0.1,0.3c-0.1,0.6,0.2,0.9,0.7,1.3
				c0.6,0.5,1.1,1.1,1.8,1.6c1.3,1,1.9,2.2,2.2,3.7c-0.7,0.2-0.9,0.6-0.8,1.2c0,0.1,0,0.2,0,0.3c-0.3,2,0.2,3.8,1.6,5.4
				c0.3,0.4,0.5,0.9,0.5,1.4c0.2,1.2,0.4,2.5,0.5,3.7c0.1,0.6,0.3,1.1,0.7,1.6c1.2,1.6,2.3,3.2,3.5,4.7c0.3,0.4,0.8,0.5,1.3,0.9
				c-0.1,0.9-0.3,1.9-0.4,3c-0.1,0.7-0.2,1.5-0.2,2.2c0,0.6,0.4,1.2,0.4,1.8s-0.3,1.2-0.5,1.8c-0.1,0.3,0,0.6,0,0.7
				c0.8,0.8,1.5,1.4,2,2c0.3,0.4,0.7,0.7,1.3,0.6c0.9-0.1,1.5,0.2,2,0.8c0.3,0.3,0.7,0.5,1.1,0.5c1.8,0,3.5,0.4,4.8,1.7
				c0.7-0.3,1.4-0.6,2.1-0.9c-0.4-1.9-0.8-3.7-1.3-5.5c-0.1-0.5-0.6-0.9-0.9-1.3c-0.4-0.4-0.5-0.8-0.4-1.4c0.2-0.8,0.2-1.7,0.4-2.5
				c0.1-0.7,0.1-1.3-0.7-1.7c0.5-0.4,1-0.8,1.5-1.2c-0.1-0.1-0.1-0.3-0.2-0.3c-1-0.6-1.1-1.5-0.9-2.5c0.6-2.8,0.4-5.6,0.4-8.5
				c0-0.6-0.3-1.3-0.4-1.9c-0.3-1.1-0.2-2,0.2-2.7c-0.2-0.8-0.5-1.5-0.6-2.2c-0.2-1-0.2-1.9-1.1-2.7c-0.6-0.5-0.6-1.1-0.6-1.8
				c0.2-1.5,0.3-3,0.5-4.5c0.1-0.5-0.1-0.9-0.5-1.2c-1.4-1.2-1.4-1.2-3.4-1.2c-0.4,0-0.9,0-1.3,0c-1.3,0.1-2.6-0.1-3.6-1
				c-0.4-0.3-0.8-0.3-1.3-0.2c-1.3,0.2-2.5,0.3-3.7,0.4c-1.5-2-1.9-3.9-1.6-6.6c0.2-0.1,0.5-0.2,0.7-0.3c0.7-0.5,0.7-0.8,0-1.4
				c-0.2-0.1-0.3-0.4-0.3-0.7c0.3,0.1,0.6,0.3,0.9,0.4c0.4-0.4,0.8-0.8,1.1-1.2c0.4-0.5,0.9-0.8,1.7-0.7s1.6,0,2.3,0
				c1.3,0.1,2.6,0,3.5-0.8c0.6,0.1,1.1,0.2,1.6,0.2c3.2-0.1,6.3-0.3,9.5-0.4c4.5-0.1,9-0.1,13.5-0.2c0.2,0,0.5,0,0.7,0.1
				c0.8,0.6,1.8,0.6,2.9,0.5c0.2,1,0.7,1.6,1.9,1.3c0.3,1.3,0.7,2.5,0.5,3.8c0,0.3-0.2,0.7-0.4,1c-0.9,1.1-1.9,2.2-2.8,3.3
				c-0.1,0.2-0.3,0.4-0.5,0.4c-1.3,0.3-2.1,1.1-2,2.5c-0.7-0.1-1.4-0.2-2-0.2c-1.7-0.1-3.4-0.2-5-0.1c-1,0.1-1.9,0.6-2.9,0.9
				c0,1.4,0,2.8,0,4.1c0,0.3,0.2,0.6,0.4,0.9c0.7,1,1.4,2.1,2.1,3.2c-0.6,0.5-1.1,1-1.7,1.5c-0.6,0.5-1,1.1-1.2,1.8
				c0,0.2-0.1,0.5-0.2,0.7c-0.4,0.9-0.5,1.7,0.6,2.3c0.4,0.2,0.3,0.6,0.2,1c-0.5,1.5-0.9,3-1.4,4.5c-0.2,0.7-0.3,1.4-0.2,2.1
				c0.4,2.5,0.8,5,1.2,7.4c0.1,0.6,0,1-0.5,1.3c-0.7,0.5-0.9,1.1-0.8,1.9c0,1.8,0,3.7,0,5.5c0,0.4,0,0.7,0,1.1
				c-0.2,0.1-0.4,0.1-0.5,0.1c-0.6,0-1.1,0-1.3,0.6s0,1.3,0.6,1.7c0.3,0.2,0.7,0.5,1.1,0.8c-0.4,0.4-0.3,0.9,0.1,1.2
				c0.4,0.4,0.5,0.8,0.5,1.4c0,1.3,0,2.5,0,3.8c0,0.6-0.1,1.1-0.2,1.8c0.1,0.1,0.2,0.4,0.4,0.6c1,1.1,1.5,2.2,1.3,3.6
				c-0.1,0.4,0.2,0.9,0.4,1.3c0.9,2,1.1,4.1,1.5,6.2c0,0.2-0.1,0.5-0.3,0.8s-0.4,0.5-0.7,0.8c0.6,0.7,0.4,1.5,0.4,2.3
				c0,0.3-0.1,0.6-0.3,0.8c-0.7,0.9-1.4,1.8-2.1,2.7c-0.2,0.2-0.4,0.5-0.6,0.5c-1.1,0-2.1,0.7-3.2,0.5c-0.7-0.1-1.4-0.2-2-0.4
				c-1-0.3-2-0.7-3-1c-0.4-0.1-0.9-0.1-1.5-0.1c-0.5-0.7-0.5-0.7-2.1-0.9c-0.6-2.2-1.1-4.4-1.6-6.7c-1-0.1-2.1-0.3-3.1-0.4
				c-0.9-0.1-1.8-0.3-2.7-0.4c-0.6-0.1-0.9-0.3-0.9-0.9c-0.1-0.9-0.3-1.8-0.5-2.8c-0.2,0-0.4,0-0.6,0c-0.2-0.6-0.4-1.2-0.6-1.7
				c-0.4-1.2-0.1-2.2,1.2-2.9c0.1,0,0.3,0,0.4,0.1c1.2,0.7,2.2,0.4,3.1-0.5c0.5-0.5,1.2-0.9,1.7-1.4c-1.1-1-2.2-1.9-3.4-3
				c-1.2,0.3-2.7,0.6-3,2.4c-0.7,0-1.4,0-2.2,0c0-0.6,0-1.1,0-1.6c0-0.6-0.1-1.1-0.7-1.5c-0.6-0.4-0.8-1-0.8-1.7
				c0.1-0.6,0-1.1,0-1.7c0-1-0.1-1.1-1.2-1.5c0-0.1-0.1-0.2-0.1-0.4c0-0.1,0-0.3,0-0.5c0.1,0,0.2,0,0.3,0c0.2,0,0.4,0.1,0.5,0
				c0.7-0.6,1.7-0.6,2.6-0.9c0.4-0.2,0.8-0.1,1,0.3c0.1,0.1,0.2,0.3,0.4,0.4c0.9,0.7,1.2,1.6,0.8,2.7c-0.2,0.5-0.3,1,0.4,1.5
				c0.8-0.6,1.7-1.2,2.5-1.8c0.1-0.1,0.2-0.2,0.2-0.4c0-0.9,0.2-1.9-0.3-2.7c-0.2-0.3-0.4-0.7-0.6-1c-0.4-0.9-1.1-1.5-2.3-1.4
				c-0.1-0.3-0.3-0.6-0.3-0.9c-0.3-2-2-3.2-3.6-4.3c-1.6-1-1.6-1-2.1-2.7c-0.3-1.1-0.7-2.3-1.2-3.4c-0.3-0.7-0.4-1.3,0.4-1.8
				c-0.7-1.1-1.4-2-2.1-3.1c0.2-0.2,0.4-0.4,0.7-0.6C617.8,612,616.7,611,615.5,610z"/>
			<path class="st1" d="M402.3,611.6c0.9-0.6,1-1.4,1-2.4c0-0.3,0.2-0.7,0.4-0.9c0.5-0.7,1.1-1.3,1.7-2c-0.3-0.5-0.6-0.9-1-1.3
				c-0.3-0.4-0.4-0.7-0.2-1.2c0.3-1,0.7-2.1,0.9-3.1c0.2-0.7,0.3-1.4,0.3-2.1c0.1-0.8,0.1-1.5-0.8-2.2c-0.7-0.5-0.9-1.5-1.4-2.2
				c-0.2-0.4-0.1-0.8,0.3-1c1-0.6,1-1.4,0.4-2.3c-0.5-0.8-0.9-1.7-1.6-2.5c-0.8-0.8-1.7-0.9-2.7-1c-1.2,0-2.4,0-3.6,0
				c-0.4,0-0.8,0-1.1-0.2c-1.5-1-3-2-4.6-3.1c0.6-1.3,1.1-2.5,1.7-3.8c0.2-0.4,0.6-0.4,1-0.4c1.6,0,3.2,0,4.8,0c0.7,0,1.5,0,2.2,0
				c1.3-0.1,2.4,0,3.3,0.9c0.1,0.1,0.5,0.3,0.6,0.2c0.9-0.4,1.8-0.6,2.4-1.4c0.3-0.3,0.5-0.7,0.8-1.1c0.8,0.4,1.5,0.8,2.2,1.2
				c0.8,0.5,1.7,0.7,2.8,0.7c1.1-0.1,2.2,0,3.3,0c0.3,0,0.7,0,1.1,0.1c0.2,0.6,0.4,1.1,0.5,1.7c0.1,0.6,0.5,0.9,1.1,1
				c0.9,0.1,1.5,0.6,2.1,1.3c0.7,0.8,1.4,1.7,2.1,2.5c0.3,0.4,0.3,0.7,0.1,1.1c-0.2,0.5-0.3,1-0.4,1.5c0,0.2,0,0.4,0,0.5
				c-0.3,3.4,0.2,6.7,1.6,9.9c0.5,1,0.4,2-0.3,2.9c-0.2,0.3-0.4,0.7-0.6,1c0.7,1.4,1.5,2.7,2.1,4.1c0.3,0.5,0.5,1.2,0.4,1.7
				c-0.1,2.5,0.2,4.9,0.5,7.4c0.1,0.7,0.2,1.3,0.7,1.9c0.1,0.2,0.2,0.4,0.4,0.6c0.8,1,1.2,2.2,1,3.4c-0.1,0.9,0.2,1.5,0.9,2.1
				c0.5,0.4,0.8,1,1.2,1.6c0.9,1.2,1.7,2.4,2.7,3.8c0.9-1.3,1.7-2.4,2.5-3.6c0.1,0.2,0.2,0.3,0.3,0.4c0.1,0.1,0.3,0.3,0.4,0.4
				c0.2-0.2,0.4-0.3,0.6-0.5c0.3-0.3,0.5-0.6,0.8-0.9c1.1-1,1.7-2.2,1.8-3.6c0-0.9,0.6-1.5,1.3-2.1c-0.4-0.8-0.8-1.6-1.3-2.3
				c-0.4-0.6-0.4-1.2-0.2-1.8c0.3-1.1,0.6-2.2,0.8-3.2c0.1-0.4,0.3-0.8,1-0.8c0-1,0-1.9,0-2.8c0-0.7,0.1-1.4,0-2
				c-0.5-2.6,1.3-4.2,3.1-5.8c0.4-0.3,0.4-0.3,1.7-0.2c0,0.5,0.1,1,0.1,1.5c0,0.6,0,1.1,0,1.7c0.1,1.1-0.1,2-1,2.7
				c-0.4,0.3-0.5,0.7-0.3,1.2c0,0.1,0.1,0.3,0.1,0.4c0.1,0.6,0.4,1.2,0.3,1.8c-0.1,0.5-0.7,1-1.2,1.5c0.3,0.3,0.7,0.7,1,1
				c-0.2,0.3-0.5,0.6-0.6,1c-0.4,0.9-0.7,1.9-1.2,2.8c-0.3,0.5-0.8,0.9-1.2,1.4c0.2,0.2,0.4,0.5,0.7,0.8c-0.4,0.3-0.8,0.7-1.2,1
				c0.8,0.9,1.6,1.7,2.4,2.5c-0.3,0.4-0.6,0.7-1,1.1c0.1,0.2,0.1,0.5,0.2,0.7c-0.4,0.4-0.8,0.7-1.2,1.1c0.2,0.2,0.4,0.4,0.7,0.6
				c-0.4,0.4-0.8,0.8-1.2,1.3c0.3,0.7,0.7,1.5,1,2.2c0.3,0.6,0.3,1,0,1.6c-0.7,1.3-1.2,2.7-1.9,4.1c1,0.7,0.8,1.5,0.7,2.5
				c-0.7,0.1-0.8,0.7-1.1,1.3c-0.9,2.2-0.8,4.4-0.5,6.8c0.2,1.4,0.7,2.6,1.8,3.5c0.1,0.1,0.1,0.2,0.2,0.3c-0.1,0.3-0.3,0.6-0.4,1
				c1.3,0.3,2.5,0.6,3.7,0.8c0.3,0,0.7-0.2,0.8-0.4c0.5-0.6,1.1-0.8,1.9-0.8c0.9,0.1,1.7,0,2.6,0c0.5,0,1.1,0,1.6,0.3
				s0.8,0.2,1.1-0.4c0.1-0.2,0.2-0.4,0.2-0.6c0.1-0.2,0.1-0.3,0.2-0.5c0.4-0.1,0.9-0.1,1.4-0.2c0-0.4,0.1-0.7,0.1-1.1
				c0-1.8,0-3.5,0-5.3c0-0.4,0-0.8,0.2-1.1c0.2-0.4,0.2-0.7-0.1-1c-1.1-1.4-1-2.9-1.1-4.5c0-1.6,0.2-3.1,0.9-4.6
				c0.5-0.9,0.4-1.6-0.5-2.2c-0.1-0.1-0.2-0.2-0.4-0.4c0.3-0.8,0.6-1.6,0.9-2.4c0.4-0.8,0.5-1.6,0.3-2.4c-0.1-0.3-0.1-0.6-0.2-1
				c-0.2-0.6,0-1.1,0.5-1.5c0.6-0.4,0.7-0.9,0.7-1.6c-0.3-2.4-0.5-4.8-0.8-7.3c0-0.3-0.2-0.6-0.3-1c0.4-0.1,0.7-0.1,1.2-0.2
				c0-1.3,0-2.6,0-3.9c0-0.8,0-1.6,0-2.5s0.1-1.6,0.8-2.3c0.2-0.2,0.3-0.6,0.3-1c-0.2-3.9-0.4-7.9-0.6-11.8c0-0.3-0.1-0.7-0.3-0.9
				c-0.8-1.2-1.5-2.3-2.3-3.5c-0.4-0.5-0.6-0.5-1,0c-0.3,0.3-0.7,0.5-1.1,0.9c-0.3,1.7-0.7,3.4-1.1,5.2c-0.1,0.6-0.2,1.2-0.4,1.8
				c0,0.2,0,0.5-0.4,0.6c-0.2,0.1-0.3,0.5-0.3,0.7c-0.2,0.6-0.3,1.2-0.4,1.9c-0.4-0.2-0.7-0.3-1-0.4c-0.9-0.4-1.8-0.9-2.7-1.3
				c-0.6-0.3-1.2-0.5-1.9-0.5c-0.8,0-1.1-0.4-0.9-1.1c0.5-1.3,1-2.6,1.5-3.9c0-0.1,0.1-0.2,0.1-0.3c1.5-1,1.2-2.5,1.5-3.9
				c0.1-0.7,0-1.4,0-2c0.4-0.2,0.8-0.3,0.9-0.5c0.2-0.3,0.2-0.7,0.3-1.1c0.9-0.1,1.3-0.7,1.8-1.3c0.6-0.8,1.3-1.2,2.4-1.3
				c1.5-0.1,2.9-0.4,4.4-0.5c0.6-0.1,1.2,0,1.8,0.1c1.1,0.2,2.2,0.5,3.3,0.8c0.8,0.2,1.3,0.2,1.9-0.4c0.3-0.3,0.6-0.6,1.2-0.6
				s1,0.1,1.5,0.5c0.9,0.9,2,1.6,3.1,2.6c0.6-0.2,1.5-0.6,2.3-0.9c1.4-0.6,2.2-0.1,2.1,1.4c0,0.1,0,0.2-0.1,0.4
				c-0.5,0.1-1,0.2-1.5,0.2c-1.3,0.1-2.4,0.5-3.5,1s-2.2,1-3.3,1.5c-0.5,0.2-0.8,0.5-1,1c-1.7,2.6-2.2,5.6-2.9,8.5v0.1
				c0.1,1.1,0,2.2-1.1,3c0.3,0.2,0.5,0.4,0.7,0.4c1,0.3,1.3,1,1.5,2c0.3,1.6,0.6,3.2,1,4.9c0.2,0.9,0.5,1.8,0.9,2.7
				c0.5,1.3,0.5,1.3,0.4,2.9c-0.2,0.1-0.4,0.2-0.6,0.3c-0.9,0.6-1.4,1.2-1.1,2.3c0.5,1.7,0.8,3.5,1.1,5.3c0.1,0.3,0.1,0.6,0.1,1
				c0,0.6,0.1,1.3,0,1.9c-0.2,1.9,0.2,3.7,1.1,5.4c0.2,0.4,0.2,0.9,0.2,1.3c-0.3,2.7-0.8,5.5-1.1,8.2c-0.2,2.1-0.2,4.2-0.2,6.3
				c0,1.3,0.3,2.6,1.3,3.6c0.5,0.5,0.7,1.2,0.6,1.9c0,0.2,0,0.4,0,0.6c0.1,0.5-0.3,1.1,0.3,1.5c0.7,0.4,1.4,1,2.5,0.8
				c1-0.2,2.1-0.2,3.2-0.3c0.4,0,0.8-0.1,1,0.3c0.1,0.2,0.4,0.3,0.6,0.3c1,0.3,1.5,1,1.8,1.8c0.4,0.8,0.7,1.5,1.1,2.2
				c0.2,0.3,0.4,0.6,0.7,0.8c0.5,0.4,0.5,0.9-0.1,1.3c-0.7,0.4-1.5,0.8-2.2,1.3c-0.3,0.2-0.6,0.5-1,0.9c-2.1-0.1-4.5-0.2-6.9-0.3
				c-0.7,0-1.3,0.1-1.8,0.5c-0.9,0.6-1.8,1.1-2.8,1.6c-0.6,0.3-1.4,0.5-1.9-0.3c-0.1-0.2-0.5-0.2-0.7-0.3c-1.2-0.4-2.4-0.8-3.6-1.2
				c-0.6-0.2-1-0.2-1.6,0c-1.6,0.6-3.3,1.1-4.9,1.7c-0.8,0.3-1.6,0.4-2.4,0.3c-0.3,0-0.7-0.1-1-0.3c-1.1-0.8-2.2-1.6-3.4-2.4
				c-0.4-0.3-0.5-0.6-0.5-1s-0.2-0.7-0.3-1.3c-0.8,0.7-1.5,1.3-2.2,1.8c-0.3-0.1-0.6-0.2-0.8-0.3c-0.1,0.1-0.2,0.1-0.3,0.2
				c-0.6,0.7-1.2,1.4-1.8,2.1c-0.2,0.2-0.6,0.5-0.9,0.5c-1.3,0.1-2.6,0-3.9,0c0-0.2,0-0.3,0-0.4c0.4-0.9,0.4-0.9-0.5-1.3
				c-0.6-0.3-1.3-0.6-1.9-0.8c-1.6-0.7-3-0.5-4,0.8s-2.2,1.7-3.9,1.7c-3.9,0-7.7,0.3-11.6,0.5c-0.3,0-0.6,0.1-0.9,0.3
				c-1.1,0.7-2.1,0.7-3.2-0.1c-0.2-0.2-0.5-0.3-0.6-0.5c-1.5-1.5-3.4-2.1-5.4-2.6c-0.4-0.1-0.8-0.1-1.3,0c-1.3,0.2-2.6,0.4-3.9,0.6
				c-0.3-0.4-0.4-0.8-0.7-1.1c-0.7-0.6-1-1.4-1-2.2c-0.1-0.8-0.2-1.6-0.3-2.2c1.6-0.8,2-2.4,3.2-3.5c0.2,0.1,0.4,0.2,0.8,0.3
				c0.2-0.4,0.4-0.7,0.5-1.1c0.9-0.1,0.9-0.1,2.6,1c0.9-0.5,1.8-0.9,2.7-1.4c0.5-0.2,0.7-0.5,0.8-1.1c0.1-1.4,0.3-2.8,0.4-4.3
				c0.1-0.7,0.1-1.3,0.8-1.7c-1.1-1.5-1.5-3.2-1.7-4.9c-0.1-0.5,0-1,0-1.5c0-0.7,0.1-1.3,0.5-1.9c0.5-0.7,0.6-1.4,0.6-2.1
				c-0.2-4.4,0.4-8.7,0.7-13.1c0-0.4,0.1-0.9,0.1-1.3c0-0.2-0.1-0.5-0.2-0.6c-0.7-0.3-0.7-0.9-0.8-1.5c-0.1-0.7-0.2-1.3-0.3-2
				C402.7,612.6,402.5,612.2,402.3,611.6z M414.1,627.6c0.3,0.9,0.1,1.5-0.6,2c-0.2,0.2-0.4,0.4-0.6,0.5c-0.5,0.4-0.6,0.8-0.5,1.3
				c0.2,1.2,0.3,2.5,0.5,3.7c0.3,2.1,0.6,4.2,1.3,6.3c1-0.3,1.4,0.4,2,0.7c0.4,0.2,0.6,0.5,0.5,0.9c-0.2,1.3,0.3,2.4,1.1,3.4
				c0.1,0.1,0.1,0.3,0.2,0.4c-0.4,0.4-0.8,0.7-1.3,1.1c0.6,0.5,1.1,1,1.6,1.5c0.3,0.3,0.7,0.5,1.2,0.5c1.1,0.1,2-0.3,3-0.5
				c0.3-0.1,0.8-0.1,1,0c0.6,0.5,1.3,0.9,1.4,1.8c0.1,0.8,0.4,1.5,0.6,2.3c0.4,0,0.6,0,0.8,0c-0.1-0.5-0.3-0.9-0.2-1.3
				c0.2-1.7-0.3-3.1-1.4-4.4c-0.1-0.2-0.3-0.4-0.3-0.6c-0.1-0.2-0.1-0.4,0-0.6c0.3-1.1,0.6-2.1,0.9-3.2c0.2-0.6,0.1-1.1-0.5-1.5
				c-0.4-0.3-0.6-0.7-0.6-1.2c0-0.8-0.2-1.6-0.3-2.3c-0.4-1.8-0.7-3.7-0.8-5.5c-0.1-1.1,0.1-2.2-0.3-3.2s-1.4-1.8-2.1-2.7
				c-0.8-1-1.6-1.9-2.5-2.9c0.7-0.3,1.3-0.6,1.9-0.8s0.8-0.6,0.9-1.1c0.6-3.3,0.6-3.3-0.5-6.5c-0.1-0.4-0.2-0.8-0.4-1.1
				c-0.3-0.7-0.6-1.3-0.9-2c-0.1-0.2-0.1-0.5-0.1-0.8c0.2-1.2,0.5-2.5,0.8-3.7c-1.2-0.8-1.2-0.9-0.1-1.9c-0.1-0.5-0.2-1-0.1-1.5
				c0.1-1,0-1.9-1-2.6c-0.5-0.3-0.5-0.7,0-1.1c0.3-0.2,0.4-0.6,0.5-0.9c0.2-0.6,0.3-1.3,0.4-1.9c0-0.2,0.1-0.5,0-0.6
				c-0.5-0.5-0.5-1.2-0.5-1.8c-1.6-0.3-1.6-0.3-2.9-1.3c-0.8-0.6-1.7-1.3-2.5-1.9c-0.6-0.5-1.3-0.6-2.1-0.4c0,1-0.1,2,0,3
				c0.1,0.9-0.2,1.5-0.9,2.1c-0.1,0.1-0.3,0.3-0.4,0.4c-0.5,0.4-0.6,0.9-0.6,1.4c0,2.5,0,5,0,7.5c0,0.3,0,0.6,0.1,0.8
				c0.4,0.6,0.4,1.2,0.3,1.9c0,1.2-0.1,2.4-0.2,3.5c-0.3,2.2-0.2,4.4,0.1,6.6c0.1,0.5,0.2,0.9,0.7,1.3c0.6,0.5,1.1,1,1.6,1.5
				c-0.3,0.3-0.7,0.5-0.8,0.8c-0.2,1.1-0.3,2.2-0.5,3.2C412.1,626.8,413.1,627.2,414.1,627.6z M441,652.4c-0.9-0.2-1.3,0.3-1.9,0.6
				c0.2,0.2,0.4,0.3,0.5,0.4C440.1,653.1,440.5,652.8,441,652.4z"/>
			<path class="st1" d="M212.4,659.5c-0.8-0.1-1.4,0.3-1.9,0.8c-0.8,0.7-1.9,1.1-2.8,1.8c-1.5,1.1-3.1,1.5-5.1,1
				c-2.8-0.7-5.7-0.5-8.5-0.5c-0.7,0-1.5-0.2-2.2-0.2c-0.8-0.1-1.6-0.2-2.4-0.2c-0.3,0-0.6,0.2-0.8,0.3c-0.2,0.2-0.4,0.4-0.7,0.7
				c-0.2-0.5-0.6-0.7-1.1-0.7c-2.5-0.1-4.9-0.2-7.4-0.3c-0.7,0-1.3-0.2-1.8-0.7c-1.4-1.1-2.8-2.2-4.2-3.3c-0.4-0.3-0.6-0.7-0.6-1.2
				c0-0.4,0.2-0.7,0.6-0.9c0.9-0.4,1.7-0.9,2.6-1.4c-0.1-0.3-0.2-0.5-0.3-0.7c0.2-0.1,0.3-0.2,0.5-0.3c1.3-0.8,1.3-0.8,1.6-2.2
				c2-0.6,4-1.1,6-1.7c0.1-1.3,0.3-2.6,0.4-3.9c0-0.2,0-0.4-0.2-0.6c-0.8-1.1-1.6-2.2-2.5-3.4c-0.9,0.2-1.5-0.4-2-1.1
				c-0.3-0.5-0.7-0.6-1.4-0.6c-6,0.3-12,0.6-18.1,0.9c-1,0.1-1.9,0.9-1.8,1.9c0.1,1.7,0.3,3.3,0.4,5.1c0.9,0.3,1.8,0.6,2.7,0.9
				c0.4,0.1,0.7,0.2,0.8,0.7c0.1,0.2,0.5,0.4,0.8,0.5s0.6,0.1,1,0.1c0,0.3,0.1,0.5,0.1,0.7c-0.3,1.5,0.9,2.4,1.8,3.4
				c0.5,0.5,1.1,0.1,1.7-0.1c0.6,1,1.2,2,1.7,3.1c0.1,0.2,0,0.5,0,0.7c-0.1,0.3-0.3,0.5-0.5,0.7c-0.3,0.4-0.5,0.8,0.1,1.4
				c-1.1,0-1.9,0-2.7,0c-0.2,0.3-0.3,0.6-0.4,0.8c-0.1,0.4-0.4,0.6-0.9,0.8c-1.2,0.5-2.4,1-3.7,1.4c-0.3,0.1-0.8,0.2-1.1,0.2
				c-3.7-0.2-7.5-0.5-11.2-0.8c-0.4,0-0.8-0.2-1.1-0.3c-1.1-0.3-2.5-0.5-3.4,0.6c-0.6,0.7-1.4,1.3-2.1,2c-0.1,0-0.1,0.1-0.3,0.2
				c-0.6-0.4-1.2-0.7-1.8-1.2c-0.3,0.2-0.7,0.5-1.1,0.7c-1-0.6-2.1-1.2-3.1-1.8c-0.8-0.5-1.6-0.8-2.6-0.7s-1.8-0.2-2.4-0.9
				c-0.7-0.8-1.5-1.5-2.3-2.2c-0.4-0.3-0.6-0.7-0.3-1.1c0.9-1.5,1-3.1,0.8-4.7c0-0.6,0.2-0.9,0.7-1.2c0.9-0.5,1.8-0.9,2.9-0.9
				c1.3,0,2.4-0.5,3.5-1.1c0.3-0.2,0.6-0.4,0.9-0.6c0.3,0.1,0.6,0.2,0.9,0.4c0.6-0.7,1.4-0.4,2.1-0.2c1.4,0.4,2.2,0,3-1.1
				c0.9-1.3,2-2.5,3.1-3.7c0.4-0.4,0.6-0.8,0.5-1.4c-0.2-2.1,0.2-4,1.2-5.9c0.3-0.7,0.5-1.5,0.7-2.3c0.3-1.2,0.8-2.4,1.7-3.4
				c0.6-0.7,1.1-1.4,1.7-2.2c-0.1-0.3-0.3-0.5-0.4-0.8c0.1-0.1,0.1-0.2,0.2-0.3c1.6-1,2-2.4,1.8-4.1c-0.1-1.4,0.1-2.8,0.2-4.2
				c0-0.8,0.4-1.5,1-2.1c0.2-0.2,0.4-0.5,0.6-0.8c0.6-0.6,0.7-1.2,0.3-1.9c-0.1-0.2-0.1-0.3-0.2-0.6c1.2-0.9,0.7-2.3,1.3-3.5
				c0.2,0,0.4,0.1,0.6,0.2c0.5,0.1,0.9-0.1,1.1-0.5c0.4-0.7,0.9-1.4,1.3-2.2c0.2-0.3,0.2-0.6,0.2-0.9c0-0.5,0-1,0-1.5
				c-0.2-2.1,0.1-4.1,1.2-5.9c0.2-0.3,0.3-0.7,0.4-1c0.2-1.5,0.9-2.8,1.7-4.1c0.4-0.6,0.7-1.3,1-2.1c0.3-0.9,0.6-1.9,1.2-2.7
				c0.3-0.4,0.4-0.8,0-1.2c1.2-0.7,2.3-0.9,3.7-0.7c0.1,0.2,0.2,0.5,0.3,0.7c0.4,0.5,0.9,0.6,1.5,0.1c0.2-0.2,0.4-0.4,0.7-0.6
				c0.1-0.1,0.2-0.2,0.3-0.4c-0.4-0.7-0.8-1.4-1.3-2l-0.1,0.1c-0.3-0.2-0.8-0.3-1-0.5c-1.6-1.6-1.6-1.6-1.2-3.8
				c0.1-0.7,0.2-1.5,0.3-2.2c1-0.6,2-0.9,3.2-0.4c0.6,0.2,1.2,0.4,1.8,0.5c1.4,0.2,2.3,1,3.2,1.8c0.2,0.2,0.4,0.6,0.4,0.8
				c-0.2,1.9,0.6,3.6,1.3,5.3c0.5,1.1,0.8,2.2,0.7,3.3c-0.1,0.6,0.1,1.1,0.5,1.6c0.7,0.7,1,1.6,1.2,2.5c0.3,1.5,0.6,3,1,4.4
				c0.1,0.6,0.1,1.1-0.4,1.6c0.4,0.7,0.7,1.4,1.1,2c1.4,2.1,2.1,4.4,2.6,6.7c0.5,2.1,0.9,4.1,1.4,6.2c0.1,0.7,0.5,1.3,1,1.8
				c0.6,0.5,1.1,1,1.7,1.6c-0.5,0.5-0.4,1,0,1.6s0.6,1.2,1,1.8c0.4,0.7,0.5,1.3,0.2,2c-0.1,0.3-0.2,0.5-0.3,0.8c0.5,0.5,1,1,1.5,1.5
				c-0.3,0.3-0.5,0.6-0.7,0.9c0,0.1,0,0.2,0.1,0.2c1.1,0.7,1.3,1.7,1.2,2.8s0,2.3,0,3.4c0,0.7,0.2,1.3,0.6,1.8
				c0.1,0.1,0.1,0.2,0.2,0.3c0.9,0.9,1.3,2,1.1,3.3c-0.1,0.8,0,1.4,1,1.7c0.5,0.1,0.5,0.5,0.6,0.9c0.4,1.4,0.7,2.9,1.1,4.3
				c0.1,0.4,0.4,0.8,0.7,1.2c0.6,0.7,1.4,1.3,2.1,1.9c0.5,0.5,1,0.7,1.6,0.6c1.4,0,2.7,0,4.1,0c0.4,0,1,0.1,1.3,0.3
				c1.3,0.9,2.8,1.3,4.3,1.7c0.6,0.2,1.1,0.4,1.2,1c0.1,0.3,0.2,0.7,0.4,1c0.4,0.9,0.4,1.7,0.1,2.6
				C212.6,658.3,212.6,658.8,212.4,659.5z M176,609c-0.7-2.2-1.4-4.5-2.1-6.8c-0.2-0.5-0.3-1-0.8-1.4c-0.2-0.1-0.3-0.4-0.3-0.7
				c0-0.5,0.1-1,0.2-1.5c0.3-1.1,0.7-2.3,1-3.4c0.1-0.3,0.1-0.7,0-0.9c-0.3-0.6-0.8-1-1.2-1.6c-0.9,0.7-1.2,1.5-0.8,2.3
				c-1.1,1.1-2.2,2.2-3.3,3.3c-0.3,0.3-0.5,0.7-0.4,1.2c0.2,1.6,0.1,3.2,0.4,4.8c0.3,1.7,0,3.1-1.1,4.6c-0.5,0.7-0.9,1.1-1.8,1
				c-0.1,0-0.1,0.1-0.3,0.1c-0.1,0.3-0.1,0.6-0.2,0.9c-0.6,1.9-0.4,3.9-0.4,5.9c0,0.7-0.1,1.3-0.8,1.8c-0.5,0.3-0.7,0.8-0.6,1.4
				c0,1.4,0,2.8,0,4.2c0,0.4,0.2,1-0.5,1.1c-0.1,0-0.2,0.2-0.2,0.4c0,0.8,0,1.7,0,2.4c1.2,0.3,2.3,0.5,3.3,0.9
				c1.6,0.7,2.9,0.6,4.4-0.2c1.4-0.7,3-1.2,4.5-1.7c0.4,0.4,0.8,0.8,1.1,1.1c1.4-0.1,2-0.9,2.6-1.8c0.2-0.2,0.4-0.5,0.5-0.7
				s0.3-0.4,0.2-0.6c-0.3-1.5,0.2-3.2-0.9-4.7c-0.1-0.2-0.1-0.4-0.1-0.6c0-0.4,0-0.7,0-1.1c0.1-0.6-0.2-1-0.8-1.3
				c-0.8-0.4-1.5-0.9-2.3-1.3c-0.7-0.4-1.2-0.8-1-1.6c0-0.2,0-0.5-0.1-0.6c-0.6-1.1-0.3-2,0.4-2.9c0.3-0.4,0.4-0.8,0.7-1.1
				C175.4,609.6,175.7,609.3,176,609z"/>
			<path class="st1" d="M519.1,648.1c0.9,0.8,1.7,1.6,2.6,2.3c0.3,0.2,0.7,0.3,1.1,0.3c1.7,0.2,3.4,0.3,5.1,0.4
				c0.9,0,1.7,0.2,2.3,0.8c0.6,0.5,1.2,0.5,1.9,0.3c2-0.5,4-1,6-1.4c0.7-0.1,1.4-0.2,2.1-0.2c0.4,0,0.9-0.1,1.1,0.4
				c0,0.1,0.3,0.2,0.5,0.3c1.7,0.4,3.3,0.8,4.9,1.1c0.2-0.1,0.3-0.1,0.3-0.2c0.6-1.4,1.7-2.2,3.1-2.7c1-0.4,1.4-0.9,1.2-1.9
				c0-0.1,0-0.3,0-0.5c0.7,0,0.9-0.4,1.2-1c0.5-1.1,0.9-2.2,1.8-3.1c0.2-0.3,0.3-0.8,0.2-1.2c0-0.8-0.2-1.6-0.3-2.3
				c-0.1-0.4,0.1-0.8,0.4-1.1c0.8-0.7,1.6-1.5,2.4-2.2c0.4-0.3,0.5-0.7,0.5-1.1c0-0.8,0-1.5,0-2.3c0-0.3,0.2-0.7,0.4-0.9
				c0.8-0.6,1.1-1.3,1-2.2c0-0.1,0-0.3,0.1-0.6c0.6,0,1.1,0,1.7,0c0.9,0,1.8,0.2,2.1-0.9c0.6,0.4,0.6,0.4,0.1,0.9
				c0.6,0.9,1.6,0.4,2.6,0.7c0.4,1.7,1.4,3.4,1.4,5.3c-0.9,0.1-1.1,0.7-1.3,1.3c-0.1,0.2-0.1,0.3-0.2,0.5c-1.4,2.3-1.4,4.8-1.2,7.3
				c0.2,2.2,0.3,4.5,0.4,6.8c0,0.6,0,1.2-0.6,1.7c-0.4,0.4-0.5,0.9-0.5,1.4c0,0.4,0,0.8,0,1.3c-0.4-0.1-0.6-0.1-1-0.2
				c-0.3,2.1-0.4,4.3-2.4,6c-0.7-0.3-1.3-0.6-2-0.9c-0.5-0.2-1-0.3-1.6-0.3c-1-0.1-2,0-2.9,0c-0.6,0-1.1-0.2-1.7-0.3
				c0-0.1,0-0.2,0-0.2c-1.1,0.5-2.1,1-3.3,1.4c-1,0.3-2,0.6-3,0.7c-0.3,0.1-0.8-0.2-1.1-0.4c-0.8-0.6-1.7-0.8-2.7-0.6
				c-3.2,0.6-6.5,0.8-9.8,0.7c-3.5-0.1-7.1,0-10.6,0c-0.8,0-1.6,0.1-2.5,0.2c-0.9,0.1-1.8,0.2-2.7,0.2c-2.2-0.1-4.4,0.1-6.5,0.7
				c-0.7,0.2-1.1,0.1-1.5-0.4s-0.9-1-1.4-1.4c-0.2,0.1-0.3,0.1-0.4,0.2c-0.7,1-1.7,1-2.9,0.9c-3.1-0.4-6.2-0.3-9.2,0.1
				c-0.1,0-0.2,0-0.4,0c-0.4-0.7-0.7-1.4-1.2-2.2c-1.5,0.3-1.9-0.8-2.5-1.6c-0.2-0.2-0.2-0.6-0.1-0.9c0.3-1.3,0.7-2.5,1.1-3.7
				c0.1-0.3,0.4-0.6,0.6-0.9c0,0,0.1,0,0.1-0.1c0.9-0.6,1.8-1.2,2.7-1.8c1.1,0.2,2.2,0.4,3.2,0.6c1.2,0.3,2.3,0.3,3.5,0.1
				c1.8-0.2,3.6-0.4,5.4-0.6c1.2-0.1,2.1-0.6,2.7-1.5c-0.2-0.3-0.4-0.6-0.6-0.9c0.7-0.8,1.3-1.7,2-2.6c0.4-0.5,0.6-1.1,0.6-1.8
				c0-2.8-0.1-5.7,0-8.5c0.1-1.7,0.3-3.3,0.6-5c0-0.2,0.2-0.5,0.5-0.7c0.4-0.4,0.4-0.7,0.1-1.1c-0.6-0.7-1.1-1.5-1.6-2.2
				c-0.2-0.3-0.3-0.8-0.2-1.1c0.2-7.3,0.5-14.7,0.7-22c0.1-2.8-0.1-5.5-0.4-8.3c-0.1-1.1-0.2-2.1-0.3-3.2c-0.1-0.9-0.4-1.8-0.9-2.7
				c-1.6,0-3.3-0.3-4.9,0.1c-1.7,0.4-3.4,0.2-5.1,0.3c-0.3,0-0.7,0.1-1-0.3c-0.1-0.2-0.6-0.2-0.9-0.3c-2-0.3-4.1-0.6-6.3-0.9
				c-0.3-0.9-0.7-1.9-1-2.9c-0.1-0.2,0-0.6,0.2-0.8c0.5-0.8,1.1-1.6,1.6-2.4c0.2-0.3,0.5-0.5,0.8-0.6c2.7-1.5,2.7-1.5,5.8-1.5
				c2.9,0,5.8,0,8.7,0c0.5,0,1.1,0,1.5-0.4c0.3-0.4,0.8-0.2,1.2-0.1c2.8,0.7,5.5,1.3,8.3,2c0.7,0.2,1.3,0.2,2,0
				c1.5-0.4,3.1-0.5,4.8-0.5c2.3,0,4.6,0,6.9,0c0.8,0,1.6-0.1,2.2-0.5c1.3-0.8,2.7-0.5,4.1-0.5c0.2,0,0.5,0.2,0.6,0.4
				c0.8,1.5,2.4,1.6,3.9,1.8c1.1,0.2,2.3,0.2,3-0.9c0.1-0.1,0.2-0.2,0.4-0.3c0.4,0.4,0.7,0.7,1.1,1.1c0.7-0.3,1.4-0.7,2.1-1.1
				c0.8-0.5,1.6-0.7,2.6-0.5c1,0.1,2,0.1,2.9,0.2c0.8,0.1,1.6,0.3,2.3,0.6c0.6,0.2,1.2,0.6,1.8,0.8c1.6,0.4,2.2,1.5,2.6,2.9
				c0.4,1.9,0.9,3.7,1.3,5.6c0.1,0.3,0.1,0.7,0.1,1.1c0,1.2,0,2.4,0,3.7c0,0.7,0.1,1.2,0.6,1.7c0.4,0.4,0.5,0.8,0.5,1.3
				c0,1.8,0,3.6,0,5.4c0,1,0.1,1.8,0.7,2.6c0.3,0.4,0.4,0.8,0.7,1.2c-0.7,0.7-1.5,1.4-2.2,2c-0.1,0.1-0.3,0.2-0.4,0.2
				c-0.8,0.2-2.2-0.4-2.6-1.1c-0.7-1.1-1.2-2.2-2-3.2c-0.8-1.2-1.3-2.4-1.3-3.8c0-1.6-0.5-3.1-1.3-4.5c-0.1-0.3-0.2-0.5-0.3-0.8
				c1-0.9,1-1.4,0.1-2.3c-0.5-0.5-0.8-1.1-1.1-1.8c-0.6-1.2-1.9-1.8-2.9-2.6c-0.3-0.2-0.9-0.1-1.4-0.2c-0.1-0.1-0.2-0.2-0.2-0.2
				c-0.1-1.3-1.2-2-2.2-2.8c-0.1-0.1-0.4-0.3-0.5-0.2c-0.8,0.5-1.1-0.2-1.6-0.5c-0.6-0.4-1.1-0.8-1.6-1.3c-0.3-0.3-0.5-0.6-0.9-1
				c-0.1,0-0.4,0-0.7,0c-0.8-0.1-1.5,0.1-1.9,0.7c-0.3,0.5-0.8,0.6-1.4,0.6c-1.7,0.1-3.4,0.2-5.2,0.3c-0.6,0-1,0.2-1.2,0.6
				c-0.6,1.1-1.5,1.5-2.8,1.3c-0.9-0.1-1.9,0-2.8,0c-1-0.1-1.8,0.2-2.1,1.3c-0.5-0.2-1-0.4-1.4-0.4c-0.9,0-1.9-0.2-2.8,0.1
				c-2.5,0.8-2.5,0.9-2.5,3.3c0,4.2,0,8.4,0,12.6c0,0.8-0.1,1.5-0.7,2.1c-0.5,0.5-0.5,1-0.3,1.7c0.6,1.9,1.4,3.8,2.7,5.5
				c0.3,0.4,0.6,0.7,1.2,0.7c0.7,0,1.5,0.1,2.2,0.2c0.4,0.1,0.9,0,1.2,0.5c0.1,0.1,0.4,0.2,0.6,0.2c0.9,0,1.7,0,2.6,0
				c0.5,0,0.8-0.2,1-0.6c0.4-0.6,0.8-1.2,1.2-1.9c0.2-0.4,0.6-0.7,1.1-0.6c1.8,0.3,2.8-0.9,3.9-1.7c0.2-0.2,0.3-0.6,0.3-0.9
				c0-1.1,0-2.3,0-3.3c1.6-1,1.8-2.4,1.9-3.9c0.2-0.1,0.3-0.1,0.4-0.1c2.6-0.6,2.6-0.6,4.6,1c0.4,0.4,1,0.6,1.6,1.1
				c-0.3,3,1.1,6,1.3,9.1c0.1,1.1,0.1,2.2-0.7,3.1c-0.9,1.1-1.2,2.3-1.1,3.6c0.1,1,0,2.1,0,3.1c-0.1,2.3,0.3,4.6,1,6.8
				c0.3,0.8,0.3,1.6,0.4,2.4c0.1,0.4-0.2,0.7-0.6,0.9c-2.3,0.9-4.5,1.8-6.9,2.7c-0.1-0.2-0.3-0.4-0.4-0.6c-0.4-0.9-0.9-1.8-1.2-2.8
				c-0.2-0.5-0.3-1-0.3-1.6c0-1.9,0-3.9,0-5.8c0-0.6-0.1-1.1-0.6-1.6c-0.4-0.4-0.7-0.8-1-1.2c-0.1-0.1-0.3-0.3-0.4-0.3
				c-0.8,0.3-1-0.3-1.4-0.6c-0.3-0.2-0.7-0.4-1.1-0.4c-3.6-0.2-7.1-0.3-10.7-0.4c-0.5,0-0.9,0.1-1.2,0.5c-0.6,0.7-1.2,1.4-1.9,2
				c-0.3,0.3-0.4,0.6-0.2,1.1c0.2,0.4,0.3,0.9,0.5,1.3c1.1,2.2,0.8,4.6,1.1,7c0,0.3-0.3,0.7-0.6,1c-0.5,0.4-0.7,0.9-0.6,1.5
				c0,1.9,0,3.9,0,5.8c0,0.5,0.1,1,0.5,1.4c0.5,0.5,0.8,1,1.3,1.5c0.6,0.6,0.9,1.2,0.7,2c-0.1,0.5-0.2,1-0.2,1.5
				C520.2,647.3,519.9,647.8,519.1,648.1z"/>
			<path class="st1" d="M238.2,591.4c-1.5,1.3-2.9,2.6-4.2,3.8c-0.4,0.3-0.6,0.7-0.9,1.1c-0.9,1.1-1.2,2.3-1.1,3.6
				c0,0.4-0.2,0.9-0.4,1.3c-0.6,0.9-1.3,1.9-2.1,2.7c-0.6,0.7-0.8,1.4-0.8,2.3c0,2.9,0,5.9,0,8.8c0,0.5-0.1,0.9-0.3,1.3
				c-0.4,0.8-0.5,1.7,0.1,2.5c0.8,1.1,1,2.1,0.4,3.3c-0.8,1.7-0.8,1.7,0.4,3.1c2,2.2,3,4.8,3.1,7.7c0.1,2,0.6,3.8,1.5,5.6
				c0.2,0.4,0.5,0.8,0.8,1.2c1,1,2.1,2,3.1,3c0.2,0.2,0.5,0.5,0.5,0.7c-0.1,0.8,0.5,1.1,1.1,1.5c1.4,0.9,2.6,1.8,2.2,3.6
				c1.3,0.4,2.4,0.9,3.6,1.2c0.8,0.2,1.7,0,2.6,0c1.4-0.1,2.9-0.2,4.3-0.4c0.4,0,0.9-0.2,1.3-0.4c1.6-1.1,3.1-2.3,4.6-3.5
				c0.4-0.3,0.9-0.6,1.3-0.6c2.2-0.2,3.8-1,5.1-2.7c0.6-0.8,1.4-1.6,2.2-2.3c0.4-0.4,0.5-0.8,0.3-1.3c-0.2-0.7-0.4-1.4-0.5-2
				c0.8-0.5,1.4-1,2.1-1.5c0.2,0.2,0.4,0.3,0.6,0.5c0.1,0,0.2,0,0.2-0.1c0.7-0.8,1.5-1.6,2.2-2.5c0.2-0.2,0.4-0.6,0.3-0.9
				c-0.3-1.3-0.7-2.6-1.1-4.1c0.6-0.6,1.4-1.3,2.1-2c0.1-0.1,0.1-0.1,0.2-0.1c1.5-0.4,3-0.8,4.6-0.6c0.4,0,0.8,0.5,1.1,0.8
				c0.6,0.6,1.2,1.1,2.4,0.9c0,0.5,0.1,1,0.1,1.4c-0.1,0.8,0.1,1.6,0.8,2.2c0.6,0.5,0.7,1.1,0.4,1.9c-0.5,1.6-0.9,3.2-1.5,4.7
				c-0.3,0.8-0.2,1.3,0.6,1.7c0.2,0.1,0.3,0.2,0.5,0.4c-0.3,0.8-0.6,1.6-1,2.4c-0.3,0.5-0.4,1,0.2,1.5c-1.3,0.5-2.4,0.9-3.6,1.3
				c-0.5,0.2-1,0.4-1.2,0.7c-0.5,0.8-0.8,1.6-1,2.5c-0.1,0.3,0.2,0.6,0.3,1c-1.2,1.2-2.5,2.5-3.8,3.8c-0.9,0.9-1.7,1.8-2.5,2.7
				c-0.7,0.8-1.1,1.7-1.2,2.8c-0.1,0.5-0.2,1-0.4,1.4c-1.5,0.3-1.5,0.3-2.7,1.4c-0.9-0.4-1.8-0.8-2.7-1.2c-0.4,0.4-0.8,0.8-1.2,1.1
				c0.1,0.3,0.2,0.5,0.4,0.9c-2.1,0.2-4,0.4-6,0.5c-1.4,0.1-2.8,0-4.2,0c-0.7,0-1.3-0.1-1.7-0.7c-0.4-0.6-1-0.7-1.7-0.5
				c-1.3,0.3-2.6,0.7-4,0.5c-0.2-0.6-0.7-0.8-1.4-0.9c-1.3-0.1-2.6-0.3-4.1-0.5c0-0.4-0.1-0.9,0-1.5c0-0.5-0.1-0.9-0.7-1.3
				c-2.4-1.5-4.4-3.3-6.4-5.2c-0.7-0.7-1.6-0.9-2.5-1.3c-1.7-0.7-1.4-0.4-1.4-1.9c0-0.4-0.1-0.9,0-1.3c0.1-1-0.2-1.7-1-2.4
				c-0.3-0.2-0.3-0.6-0.4-0.9c-0.1-0.2,0-0.5,0-0.7c-0.1-0.9-0.3-1.1-1.3-1.1c-0.3,0-0.7,0-1.1,0c-0.1-0.3-0.1-0.6-0.1-0.8
				c-0.1-0.4-0.2-0.8-0.5-1c-1.6-1.2-2-2.9-2.6-4.6c-0.2-0.5-0.1-1.1,0.1-1.6c0.5-1.3,0.2-2.5-0.6-3.6c-0.4-0.5-0.4-1-0.2-1.6
				c0.4-1.9,0.7-3.7,1.1-5.6c0.1-0.5,0.4-1,0.7-1.7c-0.3-0.2-0.7-0.6-1.1-0.9c-0.6-0.4-0.8-0.9-0.8-1.7c0.1-2.2,0.2-4.4,0.3-6.6
				c0.1-2.7,0.3-5.4,0.4-8.1c0.1-1.6,0.4-3.2,1.6-4.5c0.8-0.9,0.8-1.9,0-3.1c0.4-0.4,0.7-0.8,1.1-1.2c0.2-0.2,0.4-0.4,0.6-0.6
				c0.2,0.1,0.5,0.3,0.8,0.4c0.5-0.8,0.9-1.5,1.4-2.2c0.6-0.8,0.6-1.6,0.1-2.5c0.8-0.6,1.6-1.3,2.4-1.9c0.6-0.4,0.9-0.9,1-1.6
				c0.1-0.9,0.2-1.7,0.3-2.6c0.1-0.6,0.3-1,0.9-1.3c1.1-0.6,2-1.3,3.1-1.9c0.7-0.4,1.2-1,1.6-1.7c0.4-0.6,0.8-1.2,1.2-2
				c0.8,0,1.7,0,2.5,0c1.1,0,2.2-0.1,3.2-0.5s2.1-0.6,3.1-1c1.7-0.6,3.4-1,5.3-0.9c0.3,0,0.9-0.1,1-0.3c0.4-0.5,0.9-0.6,1.5-0.5
				c1.4,0,2.7,0,4.1,0c0.6,0,1,0.1,1.2,0.6c0.1,0.3,0.3,0.5,0.5,0.7c0.7,0.8,1.5,1.3,2.7,1.3c0.8,0,1.4,0.1,1.9,0.7
				c0.1,0.1,0.2,0.1,0.3,0.2c0.6,0.7,1.3,1,2.3,0.8c0.1,0,0.3,0,0.4,0c0.8,1.2,2.3,1.2,3.5,1.9c0.9-0.8,1.8-1.5,2.7-2.3
				c0.6-0.5,1.2-0.8,2-0.7c0.7,0.1,1.2-0.1,1.6-0.6c0.5-0.5,1.2-0.8,1.9-1.3c1.2,0.6,2.1,1.2,2.4,2.6c0.2,1.1,0.6,2.2,0.9,3.1
				c-0.3,0.6-0.5,0.9-0.7,1.3c-0.2,0.7-0.3,1.3-0.5,2c-0.1,0.4-0.3,0.9-0.7,1.2c-0.4,0.5-0.6,1-0.4,1.6c0,0.1,0,0.1,0,0.2
				c0.3,1.2,0.9,2.5-1,3.2c0.3,0.7,0.5,1.2,0.6,1.6c-0.4,0.4-0.9,0.8-1.2,1.2c-0.4,0.6-0.8,1.1-1.2,1.7c-0.5,0.8-0.4,1.4,0.2,2.1
				c0.5,0.7,0.9,1.4,1.3,2.1c1,1.8,2.1,3.6,3.1,5.4c0.3,0.5,0.4,1,0.4,1.5c-0.2,1.6-0.3,3.2-0.5,4.8c0,0.2,0,0.4-0.1,0.5
				c-0.2,0.4-0.8,0.4-0.8,1c0,0.4,0,0.8,0,1.1c-0.7,0.3-1.2,0.1-1.7-0.1c-1.5-0.8-3.1-1.6-4.4-2.7c-0.4-0.4-0.9-0.7-1.4-1
				c-1.1-0.7-1.1-0.7-2.5-0.9c0.4-0.4,0.8-0.8,1.2-1.2c-0.7-1.3-1.2-2.6-2-3.8c-0.5-0.9-0.7-1.7,0.3-2.5c0.1-0.1,0.2-0.2,0.3-0.4
				c-0.6-0.8-1.3-1.6-1.9-2.3c-0.4-0.4-0.6-0.9-0.5-1.5c0.2-0.8,0.3-1.6,0.4-2.3c0.1-0.5,0.1-1-0.3-1.4c-0.5-0.7-0.9-1.4-1.4-2.2
				c-0.2,0-0.4,0.1-0.6,0.1c-0.4-0.3-0.7-0.7-1.2-1c-0.2-0.1-0.6-0.1-0.8-0.2c-0.1,0-0.2,0.1-0.3,0.1c-0.3,0.1-0.8-0.5-1,0
				c-0.2,0.3-0.1,0.7-0.2,1c0,0.1,0,0.1-0.1,0.3c-0.6,0-1.3,0-1.9,0c0-0.1-0.1-0.2,0-0.3c0.8-1,0.4-2-0.1-3
				c-0.4-0.7-0.6-1.7-1.2-2.2s-1.6-0.4-2.4-0.6c-1.1-0.2-2.2-0.4-3.3-0.7c-0.5-0.1-0.9-0.2-1.3-0.4c-0.9-0.3-1-0.4-1.6,0.3
				c-0.6,0.6-1.2,0.8-2,0.5c-0.5-0.2-1.2-0.2-1.7-0.4c-0.7-0.2-1.2-0.1-1.6,0.4c-0.2,0.2-0.4,0.4-0.6,0.5c-0.9,0.6-1.2,1.3-1.1,2.3
				c0.1,0.8-0.3,1.2-1,1.5c-0.7,0.2-1.3,0.5-1.9,0.9C239.2,591.8,238.7,591.9,238.2,591.4z"/>
			<path class="st1" d="M362.9,624.4c-0.1,1.1-0.2,2-0.3,3c-0.2,3.5-0.5,7.1-1.1,10.6c-0.1,0.7-0.1,1.3,0.5,1.8
				c0.3,0.3,0.6,0.7,0.9,1.1c0.5,0.8,0.7,1.7,0,2.5c-0.2,0.2-0.2,0.5-0.3,0.7c-0.1,0.5-0.3,1-0.4,1.4c-0.5,0.3-1,0.5-1.4,0.8
				c-0.7,0.4-0.9,1-0.8,1.8c0.1,0.6-0.2,1.1-0.6,1.6s-0.7,1.1-0.9,1.7c-0.5,1.3-1,2.7-1.5,4.1c-0.2,0.6-0.6,1.1-1.2,1.5
				c-0.5,0.3-1,0.7-1.6,1c-0.3-0.2-0.6-0.3-0.9-0.5c-0.4,0.8-0.7,1.5-1,2.3c-0.3-0.1-0.7-0.2-1.1-0.3c-0.2,0.3-0.5,0.6-0.8,0.9
				c-0.9,1-2.2,1.6-3.6,1.7c-0.2,0-0.4,0.1-0.6,0.1c-1,0.1-1.8,0.5-2.4,1.3c-0.1,0.1-0.3,0.3-0.4,0.4c-0.4,0.6-1,0.8-1.8,0.7
				c-0.2,0-0.4,0-0.5,0c-0.7-0.6-1.3-1.2-1.8-1.8c-0.3-0.3-0.6-0.4-1.1-0.2c-0.1,0-0.2,0-0.3,0.1c-1.7,0.8-3.3,0.7-5.1,0
				c-0.9-0.3-1.9-0.3-2.9-0.3c-1.9,0.2-3.5-0.5-5-1.2c-0.3-0.1-0.5-0.6-0.8-1c-0.7-0.1-1.6-0.3-2.6-0.3c-1.4-0.1-2.4-0.8-3.6-1.3
				c-0.2-0.1-0.3-0.4-0.4-0.6c-0.8-2-1.5-4-2.3-5.9c-0.1-0.3-0.4-0.5-0.6-0.8c-1.1-1.1-2.2-2.2-3.2-3.3c-0.3-0.3-0.5-0.7-0.7-1.1
				c-0.1-0.2-0.1-0.3-0.2-0.5c-1.3-2.5-1.6-5.1-1.5-7.8s0.1-5.4,0-8.2c0-1,0.2-1.7,1.1-2.3c0.6-0.4,1.1-1,1.8-1.5
				c-0.5-1-1-1.9-1.5-2.8c-0.5-0.9-1-1.9-1.5-2.8c-0.3-0.5-0.3-0.9,0-1.3c0.1-0.1,0.1-0.2,0.2-0.3c1.4-1.8,1.4-3.7,0.9-5.8
				c-0.4-1.5-0.5-3-0.8-4.6c0-0.2,0-0.5-0.1-0.8c0.4-0.1,0.8-0.2,1.3-0.3c0-1.6,0.4-3.2-0.6-4.7c-0.2-0.3-0.3-0.7-0.5-1.1
				c-0.3-0.5-0.3-0.9,0.2-1.2c-0.7-1.3-0.7-2.6,0-3.8c-0.1-0.2-0.2-0.3-0.4-0.6c0.6-0.6,0.4-1.2,0-1.8c-0.7-1-0.7-2.1-0.6-3.1
				c0.2-1.7-0.3-3.2-1.6-4.5c-0.3-0.3-0.5-0.6-0.8-1c-0.9,0.6-1.7,1.1-2.6,1.7c-1.7-1.6-4-1.3-6.1-1.7c-0.4-1.6-0.8-3.1-1.2-4.6
				c0.9-0.7,1.8-1.4,2.6-2c1.3,0.7,3,0.8,3.8-0.5c0.8,0.7,1.9,0.9,2.9,1.2c0.3,0.1,0.6,0,0.9-0.1c0.8-0.2,1.5-0.4,2.3-0.6
				c0.6-0.2,1.1-0.3,1.6,0.2c0.3,0.3,0.7,0.2,0.9-0.1c0.3-0.4,0.6-0.7,1-1.1c1.2,0.4,2.2,0.8,3.2,1.2c0.5,0.2,0.9,0.3,1.3-0.1
				c0.2-0.2,0.2-0.4,0.4-0.7c0.8,0.3,1.6,0.6,2.5,0.9c0.2-0.2,0.5-0.3,0.7-0.5c0.5-0.6,1.2-0.8,2-0.6c0.9,0.2,1.8,0.3,2.8,0.4
				c2,0.2,3.6,1.3,5.5,1.9c0,1.8,0,3.5,0,5.2c0,0.7-0.5,1-1.2,1.1c-2.2,0.4-4.4,0.8-6.6,1.2c-0.1-0.3-0.3-0.5-0.4-0.8
				c-0.8,0-1.7,0-2.6,0c-0.5,0-0.7,0.2-0.9,0.5c-1.8,2.5-1.9,2.9-1.2,5.9c0.1,0.5,0.5,0.8,0.9,1.1c0.5,0.3,0.6,0.7,0.5,1.2
				c-0.3,0.9-0.6,1.8-1.3,2.5c-0.5,0.5-0.9,1-1.3,1.5c-0.2,0.2-0.5,0.5-0.2,0.8c0.1,0.1-0.1,0.4-0.2,0.6c-0.2,0.3-0.4,0.5-0.7,0.9
				c0.6,0.6,1.2,1.2,1.9,1.7c0.5,0.4,0.6,0.8,0.4,1.3c-0.2,0.8-0.3,1.6-0.5,2.3c-0.6,2.1-0.8,4.3-0.7,6.5c0.1,1.1-0.1,2.2-0.7,3.2
				c-0.3,0.5-0.3,0.9,0.1,1.5c0.6,0.9,0.9,1.9,1.3,2.9c0.1,0.3,0.1,0.6,0,0.9c-0.1,0.8-0.3,1.7-0.5,2.5c-0.1,0.4-0.3,0.7-0.5,1
				c-0.1,0.2-0.2,0.5-0.2,0.7c0,0.6,0,1.3,0,1.9c-0.1,1.1,0,2.1,1.2,2.8c-0.2,0.3-0.4,0.5-0.5,0.7c0.4,0.4,0.8,0.8,1.2,1.2
				c-0.4,0.4-0.8,0.9-1.3,1.3c0.4,1.1,0.9,2.3,1.4,3.5c0.5-0.1,1-0.2,1.5-0.3c-0.1,1.2,0.9,1.1,1.8,1.2c0,0.5-0.1,0.9,0,1.3
				c0.1,0.3,0.4,0.6,0.7,1v0.1c-1,0.7-1.4,1.6-0.8,2.7c0,0.1,0.1,0.1,0,0.2c-0.2,1.1,0.6,1.5,1.5,1.9c1.8,0.8,3.7,1.4,5.7,1.7
				c0.5,0.1,1,0.2,1.3,0.8c0.5,0.9,1.3,1.3,2.5,1.2c2.7-0.2,5.4-0.2,8.1-0.4c1.5-0.1,2.9-0.5,4.4-0.8c0.2,0,0.4-0.2,0.5-0.3
				c1.3-1.3,2.5-2.6,3.8-4c-0.4-0.4-0.7-0.7-1.1-1c0.5-1,1.3-1.5,2.5-1.3c0.8,0.1,1.4-0.2,1.9-0.8c0.6-0.8,1.4-1.5,2-2.2
				c-0.5-0.6-0.9-1.2-1.3-1.8c0.5-0.5,0.9-0.9,1.3-1.4c-0.7-0.7-0.8-1.5-0.9-2.4c-0.1-0.8-0.2-1.6-0.3-2.3c-0.1-0.9-0.2-1.8-1.2-2.4
				c-0.2-0.2-0.4-0.5-0.4-0.8c0-1.1,0-2.3,0-3.5c0.3,0.1,0.6,0.2,1,0.3c0.4-1.7,1.1-3.4,1.1-5.1c0-1.3-0.2-2.6,1.3-3.3
				c0-0.2,0-0.3,0-0.3c-1.1-1-1.4-2.2-1.3-3.6c0-0.4-0.1-0.9-0.3-1.4c-0.2-0.6-0.3-1.1,0.2-1.5c-1-1.6-0.6-3.3-1-4.8
				c0.4-0.3,0.7-0.5,1.1-0.7c-0.5-0.8-0.9-1.5-1.5-2.2c-0.5-0.6-0.6-1.2-0.2-1.9c0.1-0.3,0.2-0.5,0.2-0.8c-0.1-0.4-1-0.5-0.5-1.1
				c0.3,0.1,0.5,0.2,0.8,0.3c0.1-0.1,0.2-0.2,0.3-0.3c0.1-0.2,0.2-0.4,0.3-0.6c1.4-2.2,1.4-2.2,0.6-4.7c-0.1-0.3-0.3-0.6-0.5-0.9
				c-0.4-0.5-0.9-1-1.1-1.5c-0.4-1.1-1.3-1.7-2.1-2.3c-0.7-0.5-1.3-0.8-2.2-0.7c-2.6,0.1-5.2,0-7.7-0.3c-0.7-0.1-1.2-0.3-1.4-0.9
				c-0.1-0.3-0.3-0.6-0.5-0.9c-0.3-0.5-0.5-0.9-0.1-1.5c0.2-0.3,0.1-0.7,0.1-1.1c0.9,0.1,1.2-0.5,1.5-1.1c0.4-0.7,0.8-1.3,1.3-2
				c1,0,1.9,0,2.9,0c0.7,0,1.3-0.1,1.8-0.7c0.3-0.3,0.7-0.5,1.1-0.6c0.7-0.2,1.2,0.1,1.6,0.6s0.9,0.7,1.6,0.5c1.3-0.3,2.7-0.4,4-1
				c0.5-0.2,1.1-0.2,1.4-0.2c0.6,0.6,1,1,1.5,1.3c0.8,0.5,1.6,0.9,2.4,1.4c0.4,0.3,0.8,0.3,1.2,0c0.9-0.9,2.1-1,3.3-0.9
				c0.5,0,0.9,0,1.4,0c0.9,0.1,1.6-0.1,2.3-0.6c0.8-0.7,1.8-0.4,2.8-0.2c0.9,0.2,1.8,0.5,2.7,0.7c0.6,0.1,1,0.3,1.4,0.7
				c0.7,0.7,1.8,1.3,2.2,2.2c0.4,0.8,0.1,1.8,0.1,2.8c0,0.5,0,0.9,0,1.5c-1.6,0.3-3,0.6-4.5,0.9c-0.3,0.1-0.5,0.1-0.8,0.2
				c-1.3,0.4-2.5,0.3-3.5-0.6c-0.4-0.4-0.9-0.4-1.4-0.2c-1.5,0.6-3.1,1-4.2,2.3c-0.3,0.4-0.5,0.7-0.4,1.2c0.4,3.2,0.9,6.3,1.2,9.5
				c0.3,2.3,0.4,4.6,0.6,6.8c0,0.2,0,0.4-0.2,0.6c-0.6,0.9-1.3,1.9-1.9,2.8c-0.2,0.2-0.2,0.6-0.1,0.9c1.3,3.2,1.1,6.5,1.1,9.9
				c0,0.5,0,0.9,0,1.4C362.2,623.5,362.2,623.5,362.9,624.4z"/>
		</g>
		<path class="st1" d="M624.5,630c-0.6,0.1-0.9,0.4-1,1c0,0.2-0.1,0.5-0.2,0.7c-0.1,1-0.7,1.5-1.8,2c-0.8-1.2-1.6-2.5-2.3-3.7
			c-0.1-0.2-0.1-0.5,0-0.7c1-2.8,2.1-5.5,3.1-8.3c0-0.1,0.1-0.2,0.3-0.4c0.2,0.4,0.3,0.7,0.4,1C623.7,624.4,624.1,627.1,624.5,630z"
			/>
		<path class="st1" d="M345.8,645.1c-0.2-1.3-0.3-2.3-0.5-3.6c1.1,0.4,2.1,0.7,2.9,1.2c0.4,0.2,0.5,0.7,0.8,1.2
			C348,644.2,347,644.6,345.8,645.1z"/>
		<path class="st1" d="M620.3,609c-0.1-0.5-0.3-0.9-0.4-1.4c0.8,0.1,1.4,0.4,1.3,0.8c-0.1,0.3-0.4,0.5-0.6,0.7
			C620.5,609.1,620.4,609,620.3,609z"/>
	</g>
	<g>
		<path class="st1" d="M679.2,580H676v8.6h-1.7V580h-3.2v-1.2h8.1L679.2,580L679.2,580z M686.8,586.2l2.7-7.4h2.4v9.8h-1.5v-8.4
			l-3.2,8.4h-1l-3.3-8.4v8.4h-1.5v-9.8h2.4L686.8,586.2z"/>
	</g>
</g>
</svg>
